<svg xmlns="http://www.w3.org/2000/svg" xmlns:xlink="http://www.w3.org/1999/xlink" width="100" zoomAndPan="magnify" viewBox="0 0 75 74.999997" height="100" preserveAspectRatio="xMidYMid meet" version="1.2"><defs><filter x="0%" y="0%" width="100%" filterUnits="objectBoundingBox" id="a034d0622c" height="100%"><feColorMatrix values="0 0 0 0 1 0 0 0 0 1 0 0 0 0 1 0 0 0 1 0" type="matrix" in="SourceGraphic"/></filter><clipPath id="f962704bbc"><path d="M 0.734375 0.214844 L 64.484375 0.214844 L 64.484375 64.621094 L 0.734375 64.621094 Z M 0.734375 0.214844 "/></clipPath><clipPath id="f6e9d25c44"><rect x="0" width="65" y="0" height="65"/></clipPath><clipPath id="f1230a6df0"><path d="M 13.851562 4.371094 L 48 4.371094 L 48 19 L 13.851562 19 Z M 13.851562 4.371094 "/></clipPath><clipPath id="01df446b7f"><path d="M 27 56 L 61 56 L 61 70.371094 L 27 70.371094 Z M 27 56 "/></clipPath></defs><g id="8bf6a405f2"><g mask="url(#2ed2639225)" transform="matrix(1,0,0,1,5,6)"><g clip-path="url(#f6e9d25c44)"><g clip-rule="nonzero" clip-path="url(#f962704bbc)"><path style=" stroke:none;fill-rule:nonzero;fill:#000000;fill-opacity:1;" d="M 41.769531 64.414062 C 41.765625 64.234375 41.691406 64.15625 41.5625 64.207031 C 41.457031 64.253906 41.238281 64.164062 41.082031 64.007812 C 40.875 63.804688 40.75 63.769531 40.640625 63.886719 C 40.53125 64.007812 40.417969 63.996094 40.25 63.84375 C 40.035156 63.652344 40.035156 63.628906 40.28125 63.523438 C 40.535156 63.417969 39.851562 63.328125 39.113281 63.375 C 38.953125 63.382812 38.566406 63.292969 38.25 63.175781 C 37.851562 63.023438 37.621094 63.003906 37.496094 63.117188 C 37.363281 63.238281 37.296875 63.152344 37.226562 62.773438 C 37.144531 62.335938 37.109375 62.300781 36.957031 62.523438 C 36.769531 62.800781 35.742188 62.886719 35.742188 62.625 C 35.742188 62.539062 35.5 62.347656 35.203125 62.195312 C 34.796875 61.984375 34.675781 61.835938 34.699219 61.578125 C 34.753906 61.0625 34.488281 61.171875 34.375 61.714844 C 34.300781 62.078125 34.21875 62.171875 34.015625 62.117188 C 33.871094 62.074219 33.71875 62.136719 33.675781 62.253906 C 33.632812 62.371094 33.496094 62.46875 33.371094 62.46875 C 33.246094 62.46875 33.183594 62.398438 33.230469 62.316406 C 33.28125 62.230469 33.253906 62.160156 33.167969 62.160156 C 33.085938 62.160156 33.015625 62.023438 33.015625 61.855469 C 33.015625 61.496094 32.617188 61.4375 32.496094 61.777344 C 32.390625 62.070312 32.15625 62.078125 32.15625 61.785156 C 32.15625 61.664062 32.105469 61.53125 32.042969 61.488281 C 31.976562 61.445312 31.9375 61.613281 31.957031 61.859375 C 31.980469 62.25 31.949219 62.289062 31.722656 62.160156 C 31.578125 62.074219 31.429688 61.816406 31.398438 61.585938 L 31.339844 61.164062 L 31.316406 61.59375 C 31.296875 61.976562 31.25 62.015625 30.902344 61.953125 C 29.222656 61.644531 29.332031 61.636719 29.066406 62.074219 C 28.929688 62.296875 28.746094 62.453125 28.660156 62.417969 C 28.570312 62.382812 28.386719 62.417969 28.25 62.496094 C 28.058594 62.601562 28 62.570312 28 62.378906 C 28 62.175781 27.90625 62.144531 27.554688 62.21875 C 27.210938 62.292969 27.125 62.265625 27.183594 62.101562 C 27.304688 61.761719 26.996094 61.535156 26.667969 61.722656 C 26.507812 61.816406 26.347656 61.828125 26.296875 61.75 C 26.222656 61.640625 25.003906 61.597656 24.878906 61.699219 C 24.84375 61.734375 24.265625 61.742188 23.921875 61.714844 C 23.808594 61.707031 23.675781 61.5625 23.625 61.394531 C 23.574219 61.222656 23.46875 61.085938 23.390625 61.085938 C 23.3125 61.085938 23.28125 61.207031 23.324219 61.355469 C 23.371094 61.527344 23.265625 61.726562 23.019531 61.917969 C 22.816406 62.082031 22.691406 62.132812 22.75 62.035156 C 22.804688 61.933594 22.796875 61.855469 22.726562 61.855469 C 22.480469 61.855469 22.425781 62.039062 22.554688 62.40625 C 22.640625 62.648438 22.632812 62.777344 22.539062 62.777344 C 22.457031 62.777344 22.4375 62.863281 22.496094 62.96875 C 22.570312 63.097656 22.527344 63.09375 22.363281 62.949219 C 22.152344 62.769531 22.117188 62.773438 22.117188 62.988281 C 22.117188 63.125 22.039062 63.246094 21.941406 63.253906 C 21.308594 63.3125 21.164062 63.304688 20.949219 63.203125 C 20.796875 63.128906 20.683594 63.171875 20.628906 63.328125 C 20.582031 63.457031 20.488281 63.527344 20.417969 63.480469 C 20.34375 63.433594 20.253906 63.527344 20.214844 63.6875 C 20.148438 63.957031 20.101562 63.964844 19.597656 63.78125 C 19.296875 63.667969 19.003906 63.449219 18.945312 63.292969 C 18.890625 63.136719 18.835938 63.085938 18.832031 63.183594 C 18.828125 63.28125 18.664062 63.347656 18.476562 63.335938 C 18.285156 63.324219 18.160156 63.261719 18.199219 63.199219 C 18.300781 63.019531 18.039062 63.0625 17.859375 63.253906 C 17.746094 63.375 17.675781 63.328125 17.601562 63.082031 C 17.542969 62.878906 17.566406 62.695312 17.664062 62.632812 C 17.84375 62.511719 17.3125 62.179688 16.957031 62.191406 C 16.839844 62.195312 16.675781 62.183594 16.597656 62.164062 C 16.179688 62.050781 15.984375 62.171875 16.0625 62.492188 C 16.117188 62.722656 16.089844 62.789062 15.972656 62.714844 C 15.882812 62.652344 15.839844 62.546875 15.878906 62.476562 C 15.917969 62.40625 15.855469 62.265625 15.738281 62.160156 C 15.558594 62 15.507812 62.050781 15.425781 62.488281 L 15.328125 63.007812 L 15.152344 62.546875 C 15.058594 62.292969 15.007812 62.03125 15.050781 61.960938 C 15.152344 61.78125 14.96875 61.085938 14.816406 61.085938 C 14.746094 61.085938 14.722656 61.214844 14.761719 61.375 C 14.851562 61.742188 14.605469 61.910156 14.148438 61.789062 C 13.847656 61.707031 13.820312 61.648438 13.949219 61.386719 C 14.09375 61.097656 14.066406 61.082031 13.589844 61.136719 C 13.28125 61.175781 13.039062 61.121094 12.972656 61.007812 C 12.917969 60.902344 12.726562 60.769531 12.546875 60.710938 C 12.257812 60.613281 12.226562 60.65625 12.21875 61.113281 C 12.214844 61.585938 12.203125 61.601562 12.011719 61.335938 C 11.886719 61.15625 11.699219 61.078125 11.523438 61.125 C 11.214844 61.210938 10.71875 60.757812 10.898438 60.554688 C 10.957031 60.488281 10.84375 60.480469 10.648438 60.539062 C 10.449219 60.597656 10.179688 60.679688 10.046875 60.71875 C 9.910156 60.761719 9.664062 60.644531 9.492188 60.460938 C 9.265625 60.21875 9.152344 60.179688 9.074219 60.3125 C 8.894531 60.625 8.308594 60.433594 8.28125 60.054688 C 8.269531 59.867188 8.304688 59.746094 8.363281 59.785156 C 8.417969 59.820312 8.503906 59.753906 8.546875 59.632812 C 8.675781 59.269531 8.328125 59.277344 7.953125 59.652344 C 7.566406 60.039062 7.351562 59.996094 7.351562 59.539062 C 7.351562 59.375 7.253906 59.242188 7.136719 59.242188 C 7.015625 59.242188 6.910156 59.136719 6.902344 59.007812 C 6.867188 58.546875 6.84375 58.484375 6.667969 58.296875 C 6.527344 58.140625 6.488281 58.148438 6.488281 58.335938 C 6.488281 58.464844 6.296875 58.722656 6.058594 58.910156 C 5.824219 59.097656 5.628906 59.351562 5.628906 59.476562 C 5.628906 59.601562 5.546875 59.683594 5.449219 59.664062 C 5.351562 59.640625 5.261719 59.761719 5.25 59.933594 C 5.238281 60.101562 5.222656 60.289062 5.214844 60.351562 C 5.183594 60.566406 4.578125 60.210938 4.542969 59.957031 C 4.519531 59.785156 4.609375 59.699219 4.832031 59.699219 C 5.175781 59.699219 5.742188 59.15625 5.578125 58.980469 C 5.527344 58.925781 5.390625 59.011719 5.273438 59.175781 C 5.15625 59.339844 5.0625 59.386719 5.058594 59.28125 C 5.058594 59.175781 5.25 58.902344 5.484375 58.675781 C 5.949219 58.234375 6.046875 57.859375 5.703125 57.859375 C 5.582031 57.859375 5.484375 57.753906 5.484375 57.625 C 5.484375 57.5 5.421875 57.394531 5.34375 57.394531 C 5.265625 57.394531 5.191406 57.5 5.179688 57.625 C 5.148438 58.058594 5.128906 58.140625 5.019531 58.253906 C 4.960938 58.316406 4.871094 58.144531 4.820312 57.871094 C 4.761719 57.542969 4.691406 57.4375 4.617188 57.566406 C 4.433594 57.882812 4.070312 57.449219 4.085938 56.925781 C 4.097656 56.402344 4.164062 56.367188 4.425781 56.742188 C 4.597656 56.984375 4.617188 56.960938 4.621094 56.523438 C 4.625 56.257812 4.707031 56.003906 4.804688 55.960938 C 4.902344 55.917969 4.839844 55.878906 4.660156 55.871094 C 4.484375 55.863281 4.339844 55.929688 4.339844 56.011719 C 4.339844 56.097656 4.246094 56.164062 4.132812 56.164062 C 3.992188 56.164062 3.941406 56.03125 3.972656 55.742188 C 4 55.511719 4.03125 55.320312 4.046875 55.320312 C 4.058594 55.320312 4.09375 55.128906 4.125 54.898438 C 4.152344 54.664062 4.132812 54.476562 4.078125 54.476562 C 3.894531 54.476562 3.609375 55.097656 3.710938 55.273438 C 3.773438 55.386719 3.742188 55.402344 3.621094 55.320312 C 3.503906 55.242188 3.359375 55.304688 3.226562 55.488281 C 3.039062 55.757812 3.03125 55.734375 3.125 55.246094 C 3.257812 54.542969 3.300781 54.472656 3.554688 54.574219 C 3.703125 54.636719 3.742188 54.589844 3.683594 54.429688 C 3.632812 54.28125 3.699219 54.167969 3.863281 54.121094 C 4.070312 54.0625 4.058594 54.046875 3.800781 54.03125 C 3.625 54.023438 3.476562 53.921875 3.476562 53.808594 C 3.476562 53.488281 3.648438 53.386719 3.859375 53.574219 C 4.015625 53.710938 4.050781 53.648438 4.050781 53.273438 C 4.050781 52.976562 4.15625 52.722656 4.339844 52.585938 C 4.496094 52.46875 4.648438 52.171875 4.671875 51.925781 C 4.734375 51.355469 4.90625 50.9375 5.082031 50.9375 C 5.273438 50.9375 5.632812 50.535156 5.53125 50.425781 C 5.488281 50.378906 5.492188 50.167969 5.539062 49.960938 C 5.605469 49.675781 5.699219 49.605469 5.914062 49.664062 C 6.082031 49.710938 6.203125 49.671875 6.203125 49.566406 C 6.203125 49.464844 6.257812 49.421875 6.328125 49.46875 C 6.398438 49.515625 6.449219 49.46875 6.4375 49.363281 C 6.425781 49.257812 6.484375 49.140625 6.5625 49.105469 C 6.859375 48.96875 7.023438 48.683594 7.121094 48.128906 C 7.175781 47.816406 7.164062 47.558594 7.09375 47.558594 C 7.023438 47.558594 6.882812 47.386719 6.777344 47.175781 C 6.671875 46.960938 6.503906 46.789062 6.40625 46.789062 C 6.308594 46.789062 6.164062 46.582031 6.082031 46.328125 C 6 46.074219 5.757812 45.785156 5.546875 45.679688 C 5.207031 45.515625 5.136719 45.535156 4.894531 45.851562 L 4.625 46.207031 L 4.628906 45.847656 C 4.628906 45.644531 4.691406 45.382812 4.761719 45.257812 C 4.847656 45.113281 4.835938 44.953125 4.726562 44.804688 C 4.585938 44.621094 4.59375 44.601562 4.769531 44.695312 C 4.886719 44.761719 4.863281 44.707031 4.714844 44.578125 C 4.542969 44.429688 4.472656 44.226562 4.523438 44.03125 C 4.5625 43.855469 4.539062 43.714844 4.46875 43.714844 C 4.398438 43.714844 4.339844 43.640625 4.339844 43.550781 C 4.339844 43.460938 4.453125 43.40625 4.589844 43.433594 C 4.726562 43.457031 4.933594 43.417969 5.042969 43.339844 C 5.179688 43.25 5.210938 43.261719 5.140625 43.382812 C 5.078125 43.496094 5.148438 43.5625 5.335938 43.5625 C 5.519531 43.5625 5.628906 43.460938 5.628906 43.292969 C 5.628906 43.144531 5.757812 42.816406 5.914062 42.5625 C 6.328125 41.890625 6.269531 41.535156 5.839844 42.101562 L 5.488281 42.5625 L 5.488281 42.003906 C 5.488281 41.53125 5.429688 41.425781 5.121094 41.34375 C 4.921875 41.289062 4.695312 41.285156 4.621094 41.335938 C 4.542969 41.386719 4.484375 41.285156 4.484375 41.109375 C 4.484375 40.9375 4.542969 40.792969 4.617188 40.792969 C 4.699219 40.792969 4.699219 40.605469 4.617188 40.304688 C 4.546875 40.03125 4.535156 39.773438 4.59375 39.726562 C 4.648438 39.679688 4.699219 39.507812 4.699219 39.347656 C 4.699219 39.183594 4.789062 39.019531 4.898438 38.980469 C 5.042969 38.929688 5.074219 39.003906 5.011719 39.277344 C 4.964844 39.480469 4.976562 39.734375 5.042969 39.847656 C 5.121094 39.980469 5.191406 39.839844 5.253906 39.421875 C 5.328125 38.933594 5.410156 38.796875 5.632812 38.796875 C 5.796875 38.796875 5.917969 38.695312 5.917969 38.550781 C 5.917969 38.390625 5.835938 38.335938 5.703125 38.390625 C 5.582031 38.441406 5.488281 38.464844 5.488281 38.445312 C 5.488281 38.425781 5.546875 38.1875 5.621094 37.910156 C 5.703125 37.605469 5.703125 37.414062 5.621094 37.414062 C 5.546875 37.414062 5.488281 37.546875 5.488281 37.710938 C 5.488281 38.234375 5.207031 38.21875 4.691406 37.667969 C 4.355469 37.304688 4.226562 37.050781 4.289062 36.875 C 4.339844 36.730469 4.300781 36.5625 4.203125 36.496094 C 4.109375 36.433594 3.992188 35.949219 3.949219 35.425781 C 3.878906 34.589844 3.832031 34.476562 3.601562 34.542969 C 3.457031 34.582031 3.300781 34.554688 3.257812 34.476562 C 3.210938 34.402344 3.253906 34.339844 3.351562 34.339844 C 3.449219 34.339844 3.488281 34.296875 3.441406 34.25 C 3.398438 34.199219 3.234375 34.234375 3.082031 34.320312 C 2.695312 34.542969 2.613281 34.398438 2.84375 33.902344 C 3.042969 33.472656 2.972656 32.738281 2.746094 32.890625 C 2.675781 32.933594 2.617188 32.789062 2.617188 32.5625 C 2.617188 32.273438 2.558594 32.179688 2.417969 32.234375 C 2.273438 32.296875 2.226562 32.214844 2.253906 31.941406 C 2.277344 31.734375 2.214844 31.515625 2.121094 31.453125 C 2.023438 31.390625 1.902344 31.101562 1.851562 30.808594 C 1.757812 30.300781 1.765625 30.292969 1.980469 30.578125 C 2.109375 30.746094 2.167969 30.792969 2.117188 30.6875 C 1.992188 30.421875 2.175781 29.855469 2.351562 29.96875 C 2.425781 30.019531 2.640625 29.875 2.824219 29.648438 C 3.050781 29.363281 3.179688 29.296875 3.21875 29.433594 C 3.265625 29.574219 3.3125 29.554688 3.378906 29.367188 C 3.4375 29.203125 3.417969 29.132812 3.335938 29.191406 C 3.257812 29.242188 3.191406 29.140625 3.191406 28.96875 C 3.191406 28.792969 3.144531 28.652344 3.082031 28.652344 C 3.023438 28.652344 2.890625 28.503906 2.785156 28.324219 C 2.636719 28.070312 2.628906 27.96875 2.765625 27.878906 C 3.058594 27.6875 2.972656 26.917969 2.636719 26.675781 C 2.296875 26.4375 2.234375 26.191406 2.511719 26.191406 C 2.773438 26.191406 2.800781 25.121094 2.558594 24.382812 C 2.425781 23.972656 2.402344 23.734375 2.5 23.699219 C 2.660156 23.640625 2.921875 22.347656 2.769531 22.347656 C 2.71875 22.347656 2.597656 22.429688 2.503906 22.53125 C 2.28125 22.773438 2.265625 22.460938 2.480469 22.03125 C 2.628906 21.730469 2.480469 21.648438 1.9375 21.722656 C 1.839844 21.734375 1.757812 21.675781 1.757812 21.589844 C 1.757812 21.507812 1.667969 21.472656 1.554688 21.519531 C 1.347656 21.605469 1.039062 21.160156 1.042969 20.78125 C 1.046875 20.632812 1.078125 20.636719 1.179688 20.808594 C 1.335938 21.070312 1.398438 21.023438 1.542969 20.523438 C 1.605469 20.292969 1.59375 20.191406 1.5 20.253906 C 1.421875 20.304688 1.320312 20.238281 1.273438 20.105469 C 1.113281 19.667969 1.179688 19.515625 1.394531 19.820312 C 1.589844 20.097656 1.605469 20.066406 1.609375 19.390625 C 1.613281 18.847656 1.5625 18.660156 1.40625 18.660156 C 1.140625 18.660156 1.265625 18.265625 1.742188 17.601562 C 1.964844 17.292969 2.214844 17.121094 2.441406 17.121094 C 2.71875 17.121094 2.769531 17.066406 2.691406 16.851562 C 2.535156 16.421875 2.425781 15.496094 2.546875 15.617188 C 2.605469 15.679688 2.792969 15.648438 2.960938 15.546875 C 3.128906 15.449219 3.585938 15.375 3.980469 15.382812 C 4.375 15.394531 4.585938 15.367188 4.445312 15.328125 C 4.226562 15.265625 4.222656 15.226562 4.40625 15.03125 C 4.519531 14.90625 4.578125 14.707031 4.53125 14.582031 C 4.414062 14.246094 4.164062 14.304688 4.261719 14.644531 C 4.359375 14.976562 3.949219 15.226562 3.714844 14.976562 C 3.507812 14.753906 3.4375 14.15625 3.636719 14.285156 C 3.734375 14.351562 3.773438 14.285156 3.734375 14.105469 C 3.703125 13.945312 3.601562 13.835938 3.507812 13.855469 C 3.300781 13.902344 3.289062 13.742188 3.480469 13.433594 C 3.597656 13.242188 3.644531 13.238281 3.746094 13.40625 C 3.84375 13.566406 3.886719 13.550781 3.9375 13.328125 C 3.980469 13.167969 4.152344 13.027344 4.332031 13.015625 C 4.609375 12.992188 4.640625 13.042969 4.5625 13.402344 C 4.503906 13.679688 4.519531 13.746094 4.605469 13.605469 C 4.679688 13.488281 4.808594 13.441406 4.894531 13.5 C 4.988281 13.558594 5.058594 13.5 5.058594 13.367188 C 5.058594 13.210938 5.1875 13.125 5.414062 13.125 C 5.613281 13.125 5.773438 13.050781 5.773438 12.957031 C 5.773438 12.863281 5.871094 12.824219 5.988281 12.875 C 6.222656 12.96875 6.238281 12.894531 6.074219 12.449219 C 5.9375 12.070312 5.34375 11.949219 5.34375 12.300781 C 5.34375 12.503906 5.304688 12.515625 5.128906 12.355469 C 5.007812 12.253906 4.914062 12.070312 4.914062 11.953125 C 4.914062 11.835938 4.824219 11.742188 4.714844 11.742188 C 4.476562 11.742188 4.117188 11.3125 4.242188 11.179688 C 4.292969 11.125 4.429688 11.171875 4.550781 11.277344 C 4.734375 11.441406 4.769531 11.417969 4.769531 11.117188 C 4.769531 10.777344 4.777344 10.773438 4.96875 11.050781 C 5.078125 11.214844 5.128906 11.453125 5.085938 11.582031 C 5.015625 11.785156 5.035156 11.789062 5.246094 11.609375 C 5.402344 11.46875 5.488281 11.457031 5.488281 11.570312 C 5.488281 11.664062 5.585938 11.742188 5.710938 11.742188 C 5.832031 11.742188 5.898438 11.679688 5.855469 11.605469 C 5.8125 11.527344 5.875 11.425781 6 11.375 C 6.175781 11.304688 6.203125 11.164062 6.125 10.78125 C 6.027344 10.289062 6.027344 10.285156 6.316406 10.558594 C 6.664062 10.894531 6.886719 10.648438 6.554688 10.296875 C 6.308594 10.03125 6.390625 9.742188 6.714844 9.742188 C 6.828125 9.742188 6.921875 9.675781 6.921875 9.589844 C 6.921875 9.503906 7.011719 9.433594 7.125 9.433594 C 7.402344 9.433594 7.8125 8.976562 7.734375 8.757812 C 7.699219 8.660156 7.757812 8.445312 7.867188 8.285156 C 7.976562 8.125 8.066406 8.074219 8.066406 8.167969 C 8.066406 8.261719 8.207031 8.3125 8.375 8.277344 C 8.71875 8.207031 8.921875 8.050781 8.667969 8.050781 C 8.574219 8.050781 8.515625 7.878906 8.53125 7.667969 C 8.546875 7.457031 8.617188 7.285156 8.6875 7.285156 C 8.757812 7.285156 8.785156 7.421875 8.742188 7.59375 C 8.703125 7.761719 8.726562 7.859375 8.796875 7.8125 C 8.871094 7.765625 8.929688 7.621094 8.929688 7.488281 C 8.929688 7.332031 9.007812 7.285156 9.164062 7.347656 C 9.359375 7.429688 9.367188 7.40625 9.21875 7.210938 C 9.117188 7.082031 8.886719 6.976562 8.703125 6.976562 C 8.519531 6.976562 8.324219 6.898438 8.269531 6.800781 C 8.164062 6.613281 8.59375 6.667969 9.144531 6.910156 C 9.378906 7.011719 9.402344 6.996094 9.269531 6.8125 C 9.082031 6.554688 8.925781 5.746094 9.0625 5.746094 C 9.113281 5.746094 9.226562 5.820312 9.3125 5.914062 C 9.421875 6.027344 9.5 6.03125 9.5625 5.921875 C 9.652344 5.765625 9.101562 5.34375 8.890625 5.40625 C 8.832031 5.425781 8.785156 5.339844 8.785156 5.222656 C 8.785156 5.101562 8.738281 4.972656 8.675781 4.9375 C 8.617188 4.902344 8.648438 4.894531 8.75 4.921875 C 8.847656 4.945312 8.929688 4.894531 8.929688 4.804688 C 8.929688 4.710938 9.019531 4.675781 9.136719 4.722656 C 9.265625 4.777344 9.316406 4.734375 9.269531 4.605469 C 9.230469 4.488281 9.324219 4.367188 9.492188 4.320312 C 9.683594 4.265625 9.761719 4.15625 9.707031 4.003906 C 9.617188 3.753906 9.859375 3.738281 10.210938 3.972656 C 10.347656 4.0625 10.4375 4.042969 10.480469 3.910156 C 10.558594 3.652344 11.082031 3.085938 11.160156 3.171875 C 11.195312 3.207031 11.238281 3.425781 11.253906 3.664062 C 11.273438 3.898438 11.371094 4.125 11.46875 4.167969 C 11.683594 4.253906 11.71875 4.824219 11.507812 4.824219 C 11.429688 4.824219 11.363281 4.917969 11.363281 5.03125 C 11.363281 5.28125 12.089844 5.183594 12.261719 4.917969 C 12.40625 4.679688 12.394531 4.480469 12.242188 4.582031 C 12.171875 4.628906 12.035156 4.5625 11.933594 4.433594 C 11.785156 4.242188 11.800781 4.164062 12.011719 3.996094 C 12.152344 3.886719 12.226562 3.71875 12.175781 3.628906 C 12.121094 3.535156 12.144531 3.417969 12.222656 3.363281 C 12.304688 3.3125 12.371094 3.394531 12.375 3.546875 C 12.378906 3.914062 12.742188 4.417969 12.917969 4.300781 C 13.101562 4.179688 13.242188 4.601562 13.132812 4.9375 C 13.0625 5.148438 13.082031 5.167969 13.226562 5.03125 C 13.332031 4.921875 13.382812 4.605469 13.351562 4.25 C 13.296875 3.652344 13.300781 3.648438 13.695312 3.808594 C 14.167969 4 14.238281 4.515625 13.792969 4.515625 C 13.613281 4.515625 13.519531 4.59375 13.558594 4.707031 C 13.59375 4.8125 13.695312 4.882812 13.785156 4.863281 C 13.984375 4.816406 14 5.382812 13.804688 5.515625 C 13.722656 5.566406 13.660156 5.714844 13.660156 5.839844 C 13.660156 5.96875 13.730469 6.027344 13.8125 5.96875 C 13.898438 5.914062 13.929688 5.832031 13.890625 5.785156 C 13.800781 5.691406 14.882812 4.824219 15.09375 4.824219 C 15.171875 4.824219 15.238281 4.945312 15.242188 5.09375 C 15.246094 5.339844 15.261719 5.339844 15.445312 5.078125 C 15.558594 4.921875 15.710938 4.835938 15.789062 4.886719 C 16.03125 5.046875 16.0625 4.605469 15.824219 4.40625 C 15.617188 4.238281 15.621094 4.21875 15.847656 4.214844 C 15.984375 4.210938 16.097656 4.105469 16.097656 3.972656 C 16.097656 3.785156 16.039062 3.769531 15.8125 3.902344 C 15.507812 4.074219 15.445312 3.964844 15.652344 3.613281 C 15.726562 3.488281 15.855469 3.453125 15.960938 3.523438 C 16.09375 3.609375 16.121094 3.570312 16.054688 3.390625 C 15.996094 3.222656 16.035156 3.132812 16.171875 3.132812 C 16.464844 3.132812 16.4375 2.882812 16.132812 2.753906 C 15.898438 2.65625 15.902344 2.636719 16.160156 2.429688 C 16.378906 2.257812 16.460938 2.253906 16.554688 2.402344 C 16.640625 2.554688 16.761719 2.539062 17.097656 2.332031 C 17.339844 2.1875 17.53125 2.144531 17.53125 2.234375 C 17.53125 2.320312 17.398438 2.429688 17.230469 2.476562 C 17.011719 2.539062 16.984375 2.59375 17.121094 2.683594 C 17.265625 2.78125 17.253906 2.832031 17.0625 2.910156 C 16.925781 2.96875 16.816406 3.117188 16.816406 3.242188 C 16.816406 3.371094 16.894531 3.4375 16.992188 3.394531 C 17.09375 3.351562 17.273438 3.273438 17.394531 3.222656 C 17.546875 3.15625 17.613281 3.21875 17.613281 3.425781 C 17.613281 3.589844 17.5625 3.691406 17.5 3.652344 C 17.4375 3.609375 17.386719 3.769531 17.386719 4.003906 L 17.386719 4.433594 L 17.613281 4.089844 C 17.738281 3.898438 17.898438 3.785156 17.972656 3.832031 C 18.042969 3.878906 18.105469 3.777344 18.105469 3.605469 C 18.105469 3.429688 18.035156 3.289062 17.953125 3.289062 C 17.871094 3.289062 17.839844 3.222656 17.882812 3.148438 C 17.925781 3.070312 17.886719 2.980469 17.792969 2.945312 C 17.699219 2.910156 17.660156 2.777344 17.707031 2.648438 C 17.777344 2.457031 17.925781 2.429688 18.453125 2.515625 C 19.203125 2.640625 19.398438 2.496094 19.335938 1.875 C 19.308594 1.589844 19.371094 1.445312 19.542969 1.398438 C 19.847656 1.3125 20.042969 1.445312 20.042969 1.738281 C 20.042969 2.25 20.351562 2.007812 20.511719 1.367188 C 20.707031 0.582031 20.914062 0.488281 21.125 1.085938 C 21.234375 1.390625 21.222656 1.527344 21.085938 1.617188 C 20.957031 1.703125 20.945312 1.785156 21.058594 1.90625 C 21.171875 2.023438 21.265625 2.003906 21.398438 1.832031 C 21.597656 1.574219 21.902344 1.503906 21.761719 1.75 C 21.710938 1.835938 21.742188 1.90625 21.828125 1.90625 C 21.914062 1.90625 22.023438 1.683594 22.074219 1.414062 C 22.164062 0.945312 22.171875 0.941406 22.289062 1.285156 C 22.40625 1.625 22.425781 1.628906 22.605469 1.363281 C 22.777344 1.113281 22.808594 1.109375 22.925781 1.328125 C 22.992188 1.464844 23.175781 1.5625 23.328125 1.546875 C 23.511719 1.53125 23.640625 1.648438 23.707031 1.90625 L 23.8125 2.289062 L 23.824219 1.875 C 23.835938 1.648438 23.90625 1.417969 23.988281 1.363281 C 24.066406 1.308594 24.121094 1.324219 24.101562 1.394531 C 24.046875 1.585938 24.40625 2.210938 24.566406 2.210938 C 24.886719 2.210938 25.566406 1.511719 25.710938 1.03125 C 25.800781 0.75 25.933594 0.519531 26.007812 0.519531 C 26.09375 0.519531 26.09375 0.621094 26.011719 0.789062 C 25.804688 1.199219 25.808594 1.320312 26.015625 1.476562 C 26.148438 1.578125 26.160156 1.640625 26.042969 1.691406 C 25.953125 1.734375 25.910156 1.902344 25.953125 2.066406 C 26 2.273438 25.953125 2.367188 25.792969 2.367188 C 25.664062 2.367188 25.5625 2.46875 25.5625 2.597656 C 25.5625 2.746094 25.699219 2.828125 25.957031 2.824219 C 26.230469 2.824219 26.292969 2.78125 26.15625 2.691406 C 26.027344 2.601562 26.011719 2.523438 26.113281 2.457031 C 26.199219 2.402344 26.234375 2.269531 26.199219 2.167969 C 26.101562 1.890625 26.6875 1.539062 26.910156 1.742188 C 27.011719 1.828125 27.136719 1.855469 27.1875 1.800781 C 27.238281 1.746094 27.28125 1.789062 27.28125 1.894531 C 27.28125 2.011719 27.1875 2.050781 27.050781 1.996094 C 26.871094 1.921875 26.835938 1.972656 26.894531 2.210938 C 26.976562 2.546875 26.851562 2.613281 26.613281 2.355469 C 26.503906 2.238281 26.453125 2.417969 26.445312 2.96875 C 26.433594 3.417969 26.488281 3.75 26.578125 3.75 C 26.65625 3.75 26.6875 3.6875 26.644531 3.609375 C 26.542969 3.433594 26.996094 2.925781 27.121094 3.070312 C 27.167969 3.128906 27.128906 3.207031 27.03125 3.246094 C 26.933594 3.28125 26.851562 3.382812 26.851562 3.464844 C 26.851562 3.546875 26.910156 3.574219 26.980469 3.53125 C 27.046875 3.484375 27.144531 3.601562 27.195312 3.789062 C 27.285156 4.125 27.296875 4.121094 27.722656 3.617188 C 27.964844 3.335938 28.203125 3.148438 28.257812 3.203125 C 28.308594 3.257812 28.265625 3.359375 28.167969 3.425781 C 28.023438 3.519531 28.035156 3.589844 28.207031 3.742188 C 28.386719 3.902344 28.472656 3.902344 28.652344 3.742188 C 28.773438 3.632812 28.839844 3.449219 28.796875 3.332031 C 28.75 3.207031 28.78125 3.160156 28.875 3.222656 C 28.957031 3.277344 28.996094 3.457031 28.953125 3.621094 C 28.851562 4.046875 29.320312 3.925781 29.503906 3.480469 C 29.582031 3.289062 29.695312 3.132812 29.753906 3.132812 C 29.8125 3.132812 29.863281 2.957031 29.863281 2.742188 C 29.863281 2.515625 29.925781 2.390625 30.007812 2.441406 C 30.085938 2.496094 30.148438 2.460938 30.148438 2.367188 C 30.148438 2.246094 30.238281 2.246094 30.472656 2.371094 C 30.777344 2.53125 30.773438 2.523438 30.449219 2.242188 C 30.132812 1.96875 29.921875 1.136719 30.167969 1.136719 C 30.222656 1.136719 30.371094 1.09375 30.496094 1.042969 C 30.648438 0.980469 30.722656 1.035156 30.722656 1.207031 C 30.722656 1.359375 30.65625 1.417969 30.558594 1.351562 C 30.453125 1.285156 30.429688 1.308594 30.496094 1.421875 C 30.554688 1.519531 30.652344 1.566406 30.722656 1.523438 C 30.789062 1.476562 30.875 1.527344 30.914062 1.632812 C 30.957031 1.742188 30.992188 1.683594 31 1.503906 C 31.015625 1.023438 31.304688 0.214844 31.460938 0.214844 C 31.535156 0.214844 31.578125 0.332031 31.554688 0.476562 C 31.527344 0.640625 31.621094 0.765625 31.796875 0.800781 C 32.222656 0.890625 32.46875 1.152344 32.371094 1.421875 C 32.304688 1.609375 32.347656 1.601562 32.566406 1.386719 C 32.75 1.210938 32.878906 1.171875 32.941406 1.28125 C 32.992188 1.371094 32.972656 1.441406 32.894531 1.441406 C 32.820312 1.441406 32.789062 1.578125 32.828125 1.738281 C 32.871094 1.902344 32.984375 2.003906 33.089844 1.960938 C 33.40625 1.832031 33.472656 2.179688 33.226562 2.683594 C 33.101562 2.945312 33.03125 3.257812 33.074219 3.378906 C 33.117188 3.496094 33.097656 3.597656 33.03125 3.597656 C 32.808594 3.597656 32.757812 4.195312 32.960938 4.378906 C 33.191406 4.582031 33.230469 4.980469 33.019531 4.980469 C 32.9375 4.980469 32.882812 5.136719 32.890625 5.324219 C 32.90625 5.601562 32.921875 5.617188 32.976562 5.390625 C 33.011719 5.234375 33.121094 5.140625 33.21875 5.179688 C 33.332031 5.230469 33.378906 5.09375 33.359375 4.773438 C 33.34375 4.507812 33.386719 4.1875 33.457031 4.058594 C 33.566406 3.851562 33.585938 3.851562 33.589844 4.054688 C 33.597656 4.183594 33.742188 3.945312 33.914062 3.53125 C 34.136719 2.984375 34.175781 2.753906 34.050781 2.710938 C 33.945312 2.671875 33.914062 2.503906 33.964844 2.277344 C 34.015625 2.070312 33.988281 1.90625 33.910156 1.90625 C 33.667969 1.90625 33.605469 1.316406 33.832031 1.222656 C 34.207031 1.070312 34.382812 1.117188 34.191406 1.320312 C 34.097656 1.421875 34.023438 1.585938 34.023438 1.6875 C 34.023438 1.984375 34.578125 2.050781 34.832031 1.78125 C 35.046875 1.554688 35.054688 1.5625 34.957031 1.894531 C 34.890625 2.121094 34.90625 2.214844 34.996094 2.15625 C 35.1875 2.027344 35.316406 2.417969 35.164062 2.679688 C 35.019531 2.929688 35.40625 3.800781 35.605469 3.667969 C 35.875 3.488281 35.738281 3.992188 35.457031 4.210938 C 35.296875 4.332031 35.171875 4.539062 35.171875 4.667969 C 35.175781 4.847656 35.230469 4.832031 35.398438 4.59375 C 35.519531 4.425781 35.679688 4.304688 35.75 4.324219 C 35.824219 4.347656 35.886719 4.28125 35.886719 4.175781 C 35.886719 4.074219 36.042969 3.851562 36.238281 3.679688 C 36.546875 3.40625 36.578125 3.296875 36.46875 2.828125 C 36.402344 2.53125 36.335938 2.410156 36.332031 2.558594 C 36.324219 2.707031 36.25 2.828125 36.171875 2.828125 C 36.09375 2.828125 36.027344 2.898438 36.027344 2.988281 C 36.027344 3.078125 36.109375 3.101562 36.207031 3.039062 C 36.332031 2.960938 36.324219 3.003906 36.191406 3.183594 C 35.941406 3.511719 35.457031 3.523438 35.457031 3.195312 C 35.457031 3.03125 35.53125 2.980469 35.6875 3.042969 C 35.863281 3.117188 35.894531 3.074219 35.820312 2.867188 C 35.652344 2.40625 35.664062 2.304688 35.886719 2.289062 C 36.003906 2.28125 36.089844 2.207031 36.078125 2.128906 C 36.0625 2.046875 36.242188 1.964844 36.472656 1.949219 C 36.699219 1.929688 36.890625 1.988281 36.890625 2.074219 C 36.890625 2.160156 37.007812 2.191406 37.15625 2.140625 C 37.527344 2.015625 37.890625 2.195312 37.796875 2.457031 C 37.742188 2.609375 37.789062 2.648438 37.949219 2.582031 C 38.085938 2.523438 38.210938 2.585938 38.265625 2.734375 C 38.316406 2.867188 38.445312 2.980469 38.554688 2.980469 C 38.664062 2.980469 38.753906 3.050781 38.753906 3.140625 C 38.753906 3.242188 38.859375 3.238281 39.058594 3.121094 C 39.351562 2.953125 39.605469 3.117188 39.613281 3.480469 C 39.613281 3.542969 39.710938 3.59375 39.828125 3.59375 C 39.953125 3.59375 40.050781 3.746094 40.058594 3.941406 C 40.074219 4.210938 40.089844 4.226562 40.144531 4.011719 C 40.179688 3.859375 40.136719 3.640625 40.050781 3.527344 C 39.871094 3.292969 40.003906 2.472656 40.195312 2.601562 C 40.261719 2.644531 40.28125 2.785156 40.238281 2.90625 C 40.191406 3.03125 40.222656 3.132812 40.300781 3.132812 C 40.46875 3.132812 40.617188 2.769531 40.617188 2.351562 C 40.617188 2.15625 40.71875 2.058594 40.914062 2.058594 C 41.140625 2.058594 41.1875 2.128906 41.125 2.351562 C 41.0625 2.566406 41.117188 2.675781 41.328125 2.75 C 41.492188 2.804688 41.589844 2.90625 41.546875 2.980469 C 41.441406 3.167969 41.601562 3.242188 42.375 3.367188 C 42.800781 3.433594 43.054688 3.417969 43.054688 3.320312 C 43.054688 3.238281 42.976562 3.171875 42.875 3.175781 C 42.214844 3.199219 42.019531 3.128906 42.183594 2.917969 C 42.355469 2.699219 42.835938 2.75 43.164062 3.019531 C 43.289062 3.125 43.34375 3.101562 43.34375 2.9375 C 43.34375 2.808594 43.445312 2.664062 43.574219 2.609375 C 43.761719 2.535156 43.769531 2.472656 43.628906 2.285156 C 43.484375 2.097656 43.492188 2.058594 43.683594 2.058594 C 43.953125 2.058594 44 2.75 43.78125 3.558594 C 43.699219 3.863281 43.699219 4.054688 43.78125 4.054688 C 43.855469 4.054688 43.914062 4.261719 43.914062 4.515625 C 43.914062 4.875 43.980469 4.980469 44.199219 4.980469 C 44.363281 4.980469 44.453125 4.898438 44.414062 4.785156 C 44.375 4.679688 44.546875 4.472656 44.792969 4.324219 C 45.105469 4.132812 45.21875 3.964844 45.167969 3.765625 C 45.058594 3.320312 45.324219 2.949219 45.664062 3.066406 C 45.863281 3.132812 45.925781 3.109375 45.859375 2.996094 C 45.804688 2.902344 45.832031 2.828125 45.914062 2.828125 C 46.078125 2.828125 46.097656 2.921875 46.09375 3.75 C 46.09375 4.09375 46.117188 4.164062 46.160156 3.941406 C 46.199219 3.75 46.296875 3.59375 46.378906 3.59375 C 46.460938 3.59375 46.488281 3.703125 46.441406 3.835938 C 46.320312 4.175781 46.597656 4.675781 46.851562 4.574219 C 46.996094 4.515625 47.03125 4.351562 46.972656 4.042969 C 46.902344 3.660156 46.9375 3.59375 47.195312 3.59375 C 47.425781 3.59375 47.5 3.691406 47.5 3.980469 C 47.5 4.484375 47.691406 4.46875 47.921875 3.941406 C 48.023438 3.707031 48.164062 3.414062 48.238281 3.285156 C 48.308594 3.160156 48.40625 2.9375 48.453125 2.789062 C 48.589844 2.359375 48.746094 2.476562 48.71875 2.988281 C 48.699219 3.308594 48.75 3.433594 48.875 3.382812 C 48.972656 3.339844 49.089844 3.410156 49.136719 3.539062 C 49.179688 3.664062 49.28125 3.726562 49.359375 3.675781 C 49.433594 3.625 49.597656 3.832031 49.714844 4.136719 C 49.96875 4.789062 50.175781 4.726562 50.3125 3.953125 C 50.371094 3.613281 50.503906 3.375 50.660156 3.328125 C 50.800781 3.292969 50.945312 3.136719 50.980469 2.988281 C 51.066406 2.640625 51.949219 2.152344 52.132812 2.351562 C 52.214844 2.4375 52.179688 2.621094 52.042969 2.832031 C 51.867188 3.101562 51.855469 3.230469 51.988281 3.460938 C 52.082031 3.617188 52.234375 3.75 52.328125 3.75 C 52.417969 3.75 52.523438 3.835938 52.5625 3.941406 C 52.613281 4.09375 52.664062 4.09375 52.816406 3.941406 C 52.949219 3.804688 52.957031 3.75 52.835938 3.75 C 52.710938 3.75 52.707031 3.65625 52.832031 3.363281 C 53.027344 2.90625 53.300781 2.847656 53.195312 3.285156 C 53.152344 3.457031 53.183594 3.59375 53.265625 3.59375 C 53.34375 3.59375 53.378906 3.6875 53.335938 3.796875 C 53.289062 3.925781 53.371094 3.996094 53.5625 3.988281 C 53.777344 3.984375 53.890625 4.113281 53.980469 4.480469 C 54.09375 4.929688 54.152344 4.972656 54.601562 4.9375 C 55.011719 4.90625 55.082031 4.851562 55.011719 4.613281 C 54.964844 4.453125 54.980469 4.28125 55.046875 4.230469 C 55.304688 4.03125 55.523438 3.453125 55.382812 3.363281 C 55.304688 3.3125 55.25 3.1875 55.253906 3.085938 C 55.261719 2.953125 55.285156 2.957031 55.339844 3.09375 C 55.429688 3.34375 55.777344 3.34375 55.851562 3.09375 C 55.890625 2.976562 55.980469 3.039062 56.085938 3.25 C 56.183594 3.445312 56.210938 3.6875 56.148438 3.789062 C 55.949219 4.136719 55.960938 4.398438 56.171875 4.210938 C 56.304688 4.09375 56.378906 4.09375 56.414062 4.207031 C 56.449219 4.316406 56.589844 4.304688 56.855469 4.175781 C 57.269531 3.96875 57.40625 3.371094 57.070312 3.242188 C 56.972656 3.207031 56.929688 3.132812 56.976562 3.078125 C 57.019531 3.027344 57.230469 3.066406 57.441406 3.171875 C 57.71875 3.3125 57.824219 3.480469 57.824219 3.785156 C 57.824219 4.21875 58.035156 4.367188 58.152344 4.015625 C 58.1875 3.910156 58.269531 3.878906 58.339844 3.949219 C 58.40625 4.015625 58.375 4.128906 58.265625 4.203125 C 58.109375 4.304688 58.121094 4.386719 58.34375 4.632812 C 58.679688 5.011719 59.203125 5.199219 59.328125 4.984375 C 59.378906 4.894531 59.53125 4.824219 59.664062 4.824219 C 59.800781 4.824219 60.003906 4.6875 60.117188 4.515625 C 60.4375 4.039062 60.585938 4.152344 60.523438 4.824219 C 60.476562 5.355469 60.503906 5.425781 60.726562 5.351562 C 60.921875 5.285156 60.980469 5.351562 60.980469 5.644531 C 60.980469 5.949219 60.921875 6.007812 60.691406 5.945312 C 60.476562 5.882812 60.40625 5.941406 60.40625 6.171875 C 60.40625 6.496094 60.769531 6.753906 60.902344 6.527344 C 60.941406 6.453125 61.1875 6.367188 61.449219 6.335938 C 61.820312 6.289062 61.921875 6.332031 61.921875 6.539062 C 61.921875 6.683594 61.871094 6.765625 61.808594 6.726562 C 61.746094 6.683594 61.632812 6.691406 61.558594 6.742188 C 61.390625 6.851562 61.527344 7.285156 61.726562 7.285156 C 61.808594 7.285156 61.785156 7.167969 61.679688 7.023438 C 61.507812 6.796875 61.511719 6.777344 61.722656 6.863281 C 62.019531 6.980469 62.695312 6.445312 62.710938 6.082031 C 62.71875 5.875 62.742188 5.886719 62.835938 6.132812 C 62.898438 6.300781 62.894531 6.460938 62.824219 6.488281 C 62.753906 6.519531 62.699219 6.640625 62.699219 6.757812 C 62.699219 6.878906 62.636719 6.976562 62.554688 6.976562 C 62.476562 6.976562 62.414062 7.082031 62.414062 7.207031 C 62.414062 7.339844 62.273438 7.445312 62.089844 7.457031 C 61.871094 7.46875 61.84375 7.496094 62.003906 7.539062 C 62.160156 7.585938 62.214844 7.71875 62.171875 7.945312 C 62.109375 8.246094 62.125 8.242188 62.296875 7.898438 C 62.5625 7.378906 63.007812 7.398438 63.144531 7.9375 C 63.199219 8.167969 63.191406 8.398438 63.117188 8.445312 C 62.90625 8.585938 62.96875 9.097656 63.277344 9.75 C 63.4375 10.085938 63.5 10.359375 63.417969 10.359375 C 63.339844 10.359375 63.273438 10.460938 63.273438 10.589844 C 63.273438 10.863281 63.441406 10.886719 63.667969 10.640625 C 63.796875 10.503906 63.863281 10.53125 63.9375 10.753906 C 63.996094 10.917969 64.09375 11.085938 64.15625 11.132812 C 64.21875 11.179688 64.230469 11.472656 64.183594 11.785156 C 64.109375 12.273438 64.042969 12.355469 63.730469 12.355469 C 63.386719 12.355469 63.378906 12.371094 63.625 12.5625 C 63.871094 12.757812 63.871094 12.785156 63.636719 13.171875 C 63.503906 13.390625 63.433594 13.644531 63.484375 13.734375 C 63.535156 13.820312 63.507812 13.894531 63.425781 13.894531 C 63.339844 13.894531 63.273438 14.019531 63.273438 14.171875 C 63.273438 14.324219 63.195312 14.53125 63.101562 14.632812 C 62.96875 14.773438 62.96875 14.816406 63.101562 14.816406 C 63.195312 14.816406 63.273438 14.960938 63.273438 15.140625 C 63.273438 15.367188 63.207031 15.4375 63.054688 15.375 C 62.878906 15.300781 62.863281 15.339844 62.988281 15.585938 C 63.15625 15.925781 63.03125 16.632812 62.746094 16.941406 C 62.609375 17.085938 62.597656 17.222656 62.699219 17.429688 C 62.921875 17.871094 62.886719 18.121094 62.640625 17.902344 C 62.371094 17.660156 62.300781 17.84375 62.378906 18.582031 C 62.414062 18.921875 62.4375 19.492188 62.433594 19.851562 C 62.429688 20.210938 62.488281 20.503906 62.5625 20.503906 C 62.640625 20.503906 62.699219 20.574219 62.699219 20.65625 C 62.699219 20.742188 62.535156 20.8125 62.332031 20.8125 C 62.121094 20.8125 62.003906 20.878906 62.054688 20.96875 C 62.105469 21.054688 62.214844 21.078125 62.300781 21.019531 C 62.402344 20.953125 62.429688 21.03125 62.378906 21.242188 C 62.332031 21.429688 62.386719 21.644531 62.5 21.746094 C 62.75 21.96875 62.761719 22.347656 62.519531 22.351562 C 62.390625 22.351562 62.398438 22.390625 62.539062 22.488281 C 62.675781 22.582031 62.707031 22.761719 62.644531 23.0625 C 62.589844 23.304688 62.519531 23.683594 62.484375 23.90625 C 62.449219 24.128906 62.265625 24.628906 62.070312 25.019531 C 61.878906 25.410156 61.777344 25.765625 61.851562 25.816406 C 61.925781 25.863281 61.980469 25.984375 61.980469 26.085938 C 61.980469 26.195312 61.921875 26.175781 61.835938 26.039062 C 61.710938 25.832031 61.679688 25.832031 61.550781 26.039062 C 61.472656 26.164062 61.441406 26.441406 61.480469 26.652344 C 61.519531 26.863281 61.488281 27.140625 61.410156 27.269531 C 61.285156 27.472656 61.269531 27.472656 61.257812 27.269531 C 61.253906 27.132812 61.191406 27.183594 61.117188 27.382812 C 61.027344 27.617188 60.867188 27.730469 60.609375 27.730469 C 60.304688 27.730469 60.253906 27.78125 60.339844 27.996094 C 60.402344 28.144531 60.476562 28.484375 60.511719 28.75 C 60.5625 29.121094 60.632812 29.210938 60.832031 29.15625 C 60.972656 29.117188 61.128906 29.152344 61.179688 29.238281 C 61.308594 29.464844 61.121094 29.882812 60.890625 29.882812 C 60.78125 29.882812 60.691406 29.941406 60.691406 30.015625 C 60.691406 30.089844 60.574219 30.1875 60.429688 30.226562 C 60.246094 30.277344 60.160156 30.449219 60.152344 30.78125 C 60.144531 31.046875 60.097656 31.410156 60.042969 31.582031 C 59.972656 31.820312 60.023438 31.921875 60.238281 31.980469 C 60.65625 32.097656 60.640625 33.308594 60.214844 33.949219 C 60.042969 34.207031 59.925781 34.417969 59.949219 34.417969 C 59.972656 34.417969 59.949219 34.539062 59.898438 34.6875 C 59.84375 34.835938 59.878906 35.058594 59.976562 35.183594 C 60.070312 35.308594 60.109375 35.519531 60.0625 35.65625 C 60.015625 35.789062 60.070312 36.046875 60.191406 36.230469 C 60.46875 36.65625 60.46875 37.011719 60.191406 36.894531 C 59.910156 36.78125 59.917969 36.910156 60.207031 37.222656 C 60.417969 37.449219 60.417969 37.484375 60.1875 37.664062 C 59.960938 37.84375 59.957031 37.878906 60.171875 38.109375 C 60.324219 38.269531 60.375 38.488281 60.316406 38.730469 C 60.25 39.027344 60.277344 39.089844 60.445312 39.019531 C 60.601562 38.957031 60.664062 39.03125 60.664062 39.285156 C 60.664062 39.480469 60.699219 40.019531 60.742188 40.480469 C 60.789062 40.980469 60.757812 41.402344 60.667969 41.519531 C 60.558594 41.660156 60.558594 41.71875 60.675781 41.71875 C 60.789062 41.71875 60.785156 41.8125 60.65625 42.039062 C 60.5 42.320312 60.519531 42.390625 60.792969 42.589844 C 61.066406 42.789062 61.09375 42.914062 61.023438 43.574219 C 60.957031 44.160156 60.984375 44.332031 61.136719 44.335938 C 61.289062 44.339844 61.28125 44.386719 61.101562 44.535156 C 60.71875 44.84375 60.710938 45.425781 61.085938 45.574219 C 61.328125 45.671875 61.410156 45.648438 61.410156 45.480469 C 61.410156 45.355469 61.5 45.253906 61.613281 45.253906 C 61.722656 45.253906 61.839844 45.175781 61.867188 45.085938 C 61.917969 44.925781 61.910156 46.703125 61.859375 47.019531 C 61.847656 47.105469 61.769531 47.070312 61.691406 46.945312 C 61.492188 46.613281 61.324219 46.945312 61.355469 47.617188 C 61.367188 47.929688 61.304688 48.183594 61.199219 48.226562 C 61.078125 48.277344 61.015625 48.621094 61.023438 49.238281 C 61.027344 50.101562 61.152344 50.4375 61.304688 49.980469 C 61.339844 49.875 61.417969 49.835938 61.480469 49.894531 C 61.539062 49.957031 61.539062 50.128906 61.476562 50.28125 C 61.414062 50.433594 61.378906 50.65625 61.398438 50.777344 C 61.417969 50.902344 61.324219 51.085938 61.191406 51.191406 C 60.921875 51.402344 60.769531 52.570312 60.992188 52.714844 C 61.0625 52.765625 61.128906 52.679688 61.136719 52.523438 C 61.148438 52.335938 61.183594 52.371094 61.253906 52.632812 C 61.308594 52.84375 61.304688 53.1875 61.242188 53.398438 C 61.179688 53.609375 61.089844 53.992188 61.042969 54.246094 C 60.964844 54.667969 60.941406 54.683594 60.769531 54.433594 C 60.609375 54.195312 60.570312 54.191406 60.5 54.394531 C 60.402344 54.660156 59.832031 54.71875 59.832031 54.46875 C 59.832031 54.378906 59.765625 54.347656 59.6875 54.398438 C 59.609375 54.453125 59.546875 54.644531 59.546875 54.832031 C 59.546875 55.082031 59.582031 55.113281 59.675781 54.957031 C 59.773438 54.789062 59.820312 54.816406 59.902344 55.082031 C 60.019531 55.476562 59.871094 55.714844 59.699219 55.417969 C 59.625 55.289062 59.546875 55.53125 59.480469 56.074219 C 59.386719 56.890625 59.21875 57.164062 59.074219 56.742188 C 59.019531 56.589844 58.96875 56.589844 58.816406 56.742188 C 58.488281 57.078125 58.238281 56.976562 58.339844 56.550781 C 58.429688 56.15625 58.203125 56 58.054688 56.359375 C 58.015625 56.464844 58.015625 56.34375 58.0625 56.089844 L 58.148438 55.628906 L 57.84375 55.96875 C 57.480469 56.371094 57.464844 56.523438 57.753906 56.78125 C 57.871094 56.886719 57.972656 57.1875 57.976562 57.453125 C 57.984375 57.894531 57.996094 57.90625 58.117188 57.589844 C 58.1875 57.398438 58.28125 57.242188 58.332031 57.242188 C 58.375 57.242188 58.375 57.3125 58.324219 57.398438 C 58.277344 57.480469 58.339844 57.550781 58.464844 57.550781 C 58.589844 57.550781 58.765625 57.722656 58.855469 57.933594 C 58.945312 58.144531 59.109375 58.320312 59.222656 58.320312 C 59.335938 58.320312 59.398438 58.40625 59.363281 58.511719 C 59.328125 58.617188 59.351562 58.859375 59.417969 59.050781 C 59.507812 59.304688 59.484375 59.394531 59.339844 59.394531 C 59.230469 59.394531 59.105469 59.308594 59.066406 59.203125 C 59.023438 59.085938 58.988281 59.117188 58.980469 59.28125 C 58.976562 59.425781 58.914062 59.546875 58.84375 59.546875 C 58.773438 59.546875 58.683594 59.6875 58.644531 59.855469 C 58.558594 60.210938 58.113281 60.277344 58.113281 59.933594 C 58.113281 59.804688 58.175781 59.703125 58.261719 59.703125 C 58.355469 59.703125 58.359375 59.609375 58.273438 59.433594 C 58.199219 59.28125 58.171875 58.972656 58.210938 58.742188 C 58.3125 58.179688 58.070312 58.199219 57.875 58.769531 C 57.761719 59.078125 57.761719 59.265625 57.867188 59.375 C 57.96875 59.488281 57.96875 59.648438 57.871094 59.886719 L 57.726562 60.234375 L 57.554688 59.890625 C 57.335938 59.453125 56.878906 59.449219 56.664062 59.882812 C 56.503906 60.207031 56.488281 60.210938 56.300781 59.933594 C 56.054688 59.574219 56.042969 58.984375 56.28125 58.882812 C 56.417969 58.824219 56.410156 58.765625 56.246094 58.644531 C 56.113281 58.542969 56.015625 58.539062 55.984375 58.632812 C 55.957031 58.714844 55.84375 58.78125 55.734375 58.78125 C 55.46875 58.78125 55.472656 59.007812 55.746094 59.296875 C 55.863281 59.425781 55.960938 59.566406 55.960938 59.617188 C 55.960938 59.820312 55.507812 59.679688 55.242188 59.398438 C 55.085938 59.226562 54.886719 59.089844 54.804688 59.089844 C 54.722656 59.089844 54.691406 59.019531 54.742188 58.933594 C 54.875 58.703125 54.585938 58.75 54.398438 58.992188 C 54.269531 59.160156 54.296875 59.222656 54.523438 59.285156 C 54.734375 59.34375 54.8125 59.496094 54.8125 59.84375 C 54.8125 60.105469 54.75 60.316406 54.667969 60.316406 C 54.589844 60.316406 54.527344 60.421875 54.527344 60.546875 C 54.527344 60.835938 54.328125 60.847656 54.117188 60.578125 C 54.019531 60.449219 54.011719 60.316406 54.09375 60.230469 C 54.175781 60.140625 54.175781 59.996094 54.09375 59.855469 C 53.984375 59.671875 53.957031 59.695312 53.953125 59.972656 C 53.953125 60.164062 53.886719 60.316406 53.808594 60.316406 C 53.730469 60.316406 53.664062 60.183594 53.664062 60.019531 C 53.664062 59.855469 53.601562 59.679688 53.523438 59.625 C 53.445312 59.574219 53.375 59.3125 53.375 59.042969 L 53.367188 58.550781 L 53.085938 58.914062 C 52.933594 59.113281 52.804688 59.195312 52.804688 59.097656 C 52.804688 58.996094 52.742188 58.960938 52.664062 59.011719 C 52.582031 59.066406 52.519531 59.261719 52.519531 59.445312 C 52.519531 59.636719 52.429688 59.925781 52.320312 60.09375 C 52.105469 60.421875 52.089844 60.480469 52.089844 60.933594 C 52.089844 61.105469 51.992188 61.238281 51.871094 61.238281 C 51.753906 61.238281 51.660156 61.339844 51.660156 61.460938 C 51.660156 61.683594 51.136719 62.164062 50.894531 62.164062 C 50.824219 62.164062 50.804688 62.058594 50.847656 61.933594 C 50.898438 61.792969 50.847656 61.703125 50.722656 61.703125 C 50.605469 61.703125 50.511719 61.601562 50.511719 61.480469 C 50.511719 61.355469 50.398438 61.183594 50.261719 61.097656 C 50.023438 60.949219 50.023438 60.941406 50.261719 60.9375 C 50.398438 60.9375 50.511719 60.863281 50.511719 60.78125 C 50.511719 60.558594 50.117188 60.589844 50.042969 60.816406 C 50.011719 60.921875 50.054688 61.132812 50.140625 61.285156 C 50.335938 61.625 50.132812 61.785156 49.316406 61.921875 C 48.875 62 48.707031 61.964844 48.613281 61.785156 C 48.441406 61.453125 48.128906 61.492188 47.875 61.875 C 47.734375 62.089844 47.578125 62.167969 47.417969 62.101562 C 47.285156 62.050781 47.089844 62.082031 46.980469 62.179688 C 46.828125 62.3125 46.78125 62.300781 46.78125 62.121094 C 46.78125 61.835938 46.398438 61.652344 46.269531 61.878906 C 46.214844 61.96875 45.992188 62 45.769531 61.953125 C 45.449219 61.886719 45.378906 61.914062 45.441406 62.089844 C 45.492188 62.234375 45.433594 62.316406 45.285156 62.316406 C 45.152344 62.316406 45.078125 62.261719 45.117188 62.195312 C 45.253906 61.953125 44.582031 61.394531 44.148438 61.394531 C 43.816406 61.394531 43.605469 61.769531 43.8125 62 C 43.953125 62.160156 43.925781 62.179688 43.664062 62.09375 C 43.433594 62.015625 43.363281 62.046875 43.414062 62.191406 C 43.507812 62.46875 43.230469 62.902344 43.089844 62.695312 C 42.964844 62.507812 42.769531 62.503906 42.503906 62.683594 C 42.390625 62.761719 42.246094 62.738281 42.144531 62.621094 C 42.019531 62.472656 42.023438 62.453125 42.160156 62.535156 C 42.347656 62.648438 42.40625 62.445312 42.238281 62.261719 C 42.007812 62.011719 41.808594 62.824219 41.9375 63.484375 C 42.027344 63.921875 42.019531 64.242188 41.921875 64.425781 C 41.78125 64.6875 41.773438 64.6875 41.769531 64.414062 Z M 42.402344 64.023438 C 42.484375 63.878906 42.4375 63.738281 42.269531 63.605469 C 42.097656 63.472656 42.050781 63.316406 42.125 63.128906 C 42.21875 62.886719 42.246094 62.898438 42.332031 63.238281 C 42.390625 63.449219 42.507812 63.605469 42.601562 63.585938 C 42.847656 63.527344 42.804688 63.785156 42.523438 64.027344 C 42.320312 64.207031 42.300781 64.207031 42.402344 64.023438 Z M 41.050781 62.703125 C 40.941406 62.488281 40.824219 62.347656 40.785156 62.390625 C 40.75 62.429688 40.796875 62.5625 40.890625 62.683594 C 41.027344 62.859375 41.011719 62.933594 40.820312 63.050781 C 40.675781 63.136719 40.621094 63.273438 40.683594 63.386719 C 40.769531 63.53125 40.847656 63.515625 41.019531 63.332031 C 41.210938 63.125 41.21875 63.039062 41.050781 62.703125 Z M 15.601562 63.09375 C 15.503906 62.921875 15.730469 62.742188 15.863281 62.882812 C 15.996094 63.027344 15.972656 63.238281 15.820312 63.238281 C 15.742188 63.238281 15.648438 63.171875 15.601562 63.09375 Z M 44.203125 61.855469 C 44.203125 61.769531 44.269531 61.699219 44.351562 61.699219 C 44.4375 61.699219 44.464844 61.769531 44.417969 61.855469 C 44.367188 61.9375 44.300781 62.007812 44.265625 62.007812 C 44.230469 62.007812 44.203125 61.9375 44.203125 61.855469 Z M 53.90625 61.792969 C 53.851562 61.644531 53.8125 61.40625 53.816406 61.265625 C 53.824219 61.09375 53.875 61.132812 53.964844 61.378906 C 54.042969 61.582031 54.082031 61.820312 54.054688 61.910156 C 54.027344 61.996094 53.960938 61.945312 53.90625 61.792969 Z M 15.734375 61.535156 C 15.632812 61.363281 15.238281 61.34375 15.238281 61.515625 C 15.238281 61.582031 15.367188 61.644531 15.527344 61.65625 C 15.683594 61.671875 15.777344 61.617188 15.734375 61.535156 Z M 24.375 61.300781 C 24.328125 61.25 24.203125 61.242188 24.101562 61.289062 C 23.984375 61.335938 24.019531 61.375 24.1875 61.382812 C 24.335938 61.386719 24.421875 61.351562 24.375 61.300781 Z M 30.175781 61.148438 C 30.152344 61.070312 30.039062 61.027344 29.925781 61.054688 C 29.8125 61.078125 29.71875 61.015625 29.71875 60.914062 C 29.71875 60.808594 29.6875 60.761719 29.644531 60.808594 C 29.601562 60.851562 29.609375 60.996094 29.652344 61.125 C 29.742188 61.371094 30.253906 61.394531 30.175781 61.148438 Z M 53.53125 60.894531 C 53.527344 60.660156 53.585938 60.46875 53.664062 60.46875 C 53.835938 60.46875 53.835938 60.589844 53.664062 61.007812 C 53.554688 61.28125 53.542969 61.265625 53.53125 60.894531 Z M 56.53125 60.929688 C 56.53125 60.847656 56.597656 60.777344 56.675781 60.777344 C 56.753906 60.777344 56.820312 60.847656 56.820312 60.929688 C 56.820312 61.015625 56.753906 61.085938 56.675781 61.085938 C 56.597656 61.085938 56.53125 61.015625 56.53125 60.929688 Z M 55.917969 60.46875 C 55.875 60.300781 55.902344 60.160156 55.972656 60.160156 C 56.042969 60.160156 56.101562 60.300781 56.101562 60.46875 C 56.101562 60.640625 56.078125 60.777344 56.046875 60.777344 C 56.015625 60.777344 55.960938 60.640625 55.917969 60.46875 Z M 51.136719 60.394531 C 51.089844 60.265625 51.027344 60.164062 50.996094 60.164062 C 50.964844 60.164062 50.941406 60.265625 50.941406 60.394531 C 50.941406 60.519531 51.003906 60.625 51.082031 60.625 C 51.15625 60.625 51.179688 60.519531 51.136719 60.394531 Z M 52.804688 60.238281 C 52.804688 60.113281 52.832031 60.007812 52.859375 60.007812 C 52.890625 60.007812 52.953125 60.113281 53 60.238281 C 53.046875 60.367188 53.019531 60.46875 52.945312 60.46875 C 52.867188 60.46875 52.804688 60.367188 52.804688 60.238281 Z M 6.75 60.363281 C 6.851562 60.320312 6.976562 60.324219 7.023438 60.378906 C 7.070312 60.429688 6.988281 60.464844 6.835938 60.457031 C 6.667969 60.449219 6.636719 60.414062 6.75 60.363281 Z M 4.207031 59.457031 C 4.214844 59.277344 4.246094 59.242188 4.292969 59.363281 C 4.335938 59.476562 4.328125 59.609375 4.28125 59.660156 C 4.234375 59.710938 4.199219 59.621094 4.207031 59.457031 Z M 54.238281 58.78125 C 54.238281 58.695312 54.210938 58.625 54.175781 58.625 C 54.140625 58.625 54.074219 58.695312 54.023438 58.78125 C 53.976562 58.863281 54.003906 58.933594 54.085938 58.933594 C 54.171875 58.933594 54.238281 58.863281 54.238281 58.78125 Z M 3.476562 58.703125 C 3.476562 58.574219 3.542969 58.472656 3.621094 58.472656 C 3.699219 58.472656 3.765625 58.574219 3.765625 58.703125 C 3.765625 58.828125 3.699219 58.933594 3.621094 58.933594 C 3.542969 58.933594 3.476562 58.828125 3.476562 58.703125 Z M 57.535156 58.472656 C 57.535156 58.386719 57.476562 58.316406 57.402344 58.316406 C 57.328125 58.316406 57.226562 58.386719 57.179688 58.472656 C 57.128906 58.558594 57.191406 58.625 57.3125 58.625 C 57.4375 58.625 57.535156 58.558594 57.535156 58.472656 Z M 4.410156 58.164062 C 4.363281 58.078125 4.425781 58.011719 4.554688 58.011719 C 4.679688 58.011719 4.746094 58.078125 4.699219 58.164062 C 4.648438 58.25 4.585938 58.316406 4.554688 58.316406 C 4.523438 58.316406 4.457031 58.25 4.410156 58.164062 Z M 53.808594 58.011719 C 53.808594 57.925781 53.78125 57.859375 53.746094 57.859375 C 53.710938 57.859375 53.644531 57.925781 53.59375 58.011719 C 53.542969 58.097656 53.574219 58.164062 53.65625 58.164062 C 53.742188 58.164062 53.808594 58.097656 53.808594 58.011719 Z M 6.300781 57.367188 C 6.253906 57.246094 6.222656 57.28125 6.214844 57.460938 C 6.207031 57.621094 6.242188 57.714844 6.289062 57.660156 C 6.335938 57.609375 6.34375 57.476562 6.300781 57.367188 Z M 59.554688 57 C 59.5625 56.820312 59.597656 56.785156 59.640625 56.90625 C 59.683594 57.015625 59.679688 57.148438 59.632812 57.199219 C 59.582031 57.25 59.550781 57.160156 59.554688 57 Z M 56.582031 56.855469 C 56.460938 56.515625 56.261719 56.582031 56.347656 56.933594 C 56.390625 57.101562 56.476562 57.203125 56.542969 57.160156 C 56.609375 57.117188 56.628906 56.976562 56.582031 56.855469 Z M 3.273438 56.488281 C 3.171875 56.320312 3.320312 55.859375 3.472656 55.859375 C 3.535156 55.859375 3.550781 56.03125 3.511719 56.242188 C 3.441406 56.65625 3.394531 56.703125 3.273438 56.488281 Z M 4.964844 55.476562 C 5.007812 55.347656 4.984375 55.246094 4.90625 55.246094 C 4.832031 55.246094 4.769531 55.347656 4.769531 55.476562 C 4.769531 55.601562 4.792969 55.703125 4.824219 55.703125 C 4.855469 55.703125 4.917969 55.601562 4.964844 55.476562 Z M 58.886719 54.683594 C 59.023438 54.300781 58.875 54.25 58.691406 54.617188 C 58.601562 54.792969 58.589844 54.9375 58.664062 54.9375 C 58.738281 54.9375 58.835938 54.824219 58.886719 54.683594 Z M 58.109375 54.015625 C 58.109375 53.808594 58.015625 53.707031 57.824219 53.707031 C 57.46875 53.707031 57.449219 53.945312 57.789062 54.15625 C 58.121094 54.363281 58.109375 54.367188 58.109375 54.011719 Z M 60.835938 53.707031 C 60.835938 53.535156 60.777344 53.398438 60.707031 53.398438 C 60.546875 53.398438 60.394531 53.796875 60.511719 53.921875 C 60.683594 54.105469 60.835938 54.003906 60.835938 53.707031 Z M 59.921875 52.832031 C 59.753906 52.648438 59.402344 52.945312 59.402344 53.269531 L 59.402344 53.609375 L 59.703125 53.261719 C 59.867188 53.074219 59.96875 52.878906 59.921875 52.832031 Z M 61.777344 49.230469 C 61.550781 48.988281 61.539062 48.941406 61.726562 48.941406 C 61.851562 48.941406 61.992188 49.054688 62.042969 49.195312 C 62.167969 49.550781 62.09375 49.558594 61.777344 49.230469 Z M 61.121094 49.101562 C 61.121094 49.023438 61.1875 48.917969 61.265625 48.863281 C 61.34375 48.8125 61.410156 48.875 61.410156 49.007812 C 61.410156 49.140625 61.34375 49.25 61.265625 49.25 C 61.1875 49.25 61.121094 49.183594 61.121094 49.101562 Z M 5.484375 46.636719 C 5.484375 46.550781 5.550781 46.480469 5.628906 46.480469 C 5.707031 46.480469 5.773438 46.550781 5.773438 46.636719 C 5.773438 46.71875 5.707031 46.789062 5.628906 46.789062 C 5.550781 46.789062 5.484375 46.71875 5.484375 46.636719 Z M 60.261719 45.105469 C 60.261719 45.027344 60.195312 44.917969 60.117188 44.867188 C 60.039062 44.816406 59.976562 44.878906 59.976562 45.011719 C 59.976562 45.144531 60.039062 45.25 60.117188 45.25 C 60.195312 45.25 60.261719 45.1875 60.261719 45.105469 Z M 6.203125 44.625 C 6.203125 44.550781 6.105469 44.53125 5.988281 44.582031 C 5.871094 44.628906 5.773438 44.730469 5.773438 44.800781 C 5.773438 44.875 5.871094 44.894531 5.988281 44.84375 C 6.105469 44.796875 6.203125 44.699219 6.203125 44.625 Z M 7.78125 44.644531 C 7.78125 44.566406 7.714844 44.457031 7.636719 44.40625 C 7.558594 44.355469 7.492188 44.417969 7.492188 44.550781 C 7.492188 44.683594 7.558594 44.789062 7.636719 44.789062 C 7.714844 44.789062 7.78125 44.726562 7.78125 44.644531 Z M 61.21875 43.90625 C 61.183594 43.84375 61.210938 43.652344 61.273438 43.484375 C 61.375 43.214844 61.390625 43.230469 61.398438 43.597656 C 61.410156 44.015625 61.339844 44.132812 61.21875 43.90625 Z M 60.261719 42.332031 C 60.261719 42.246094 60.234375 42.175781 60.199219 42.175781 C 60.164062 42.175781 60.09375 42.246094 60.046875 42.332031 C 59.996094 42.417969 60.027344 42.484375 60.109375 42.484375 C 60.191406 42.484375 60.261719 42.417969 60.261719 42.332031 Z M 4.296875 41.925781 C 4.246094 41.871094 4.234375 41.769531 4.273438 41.703125 C 4.367188 41.546875 4.769531 41.699219 4.769531 41.886719 C 4.769531 42.042969 4.429688 42.070312 4.296875 41.925781 Z M 5.484375 40.609375 C 5.484375 40.542969 5.421875 40.488281 5.34375 40.488281 C 5.265625 40.488281 5.199219 40.550781 5.199219 40.628906 C 5.199219 40.707031 5.160156 40.894531 5.117188 41.050781 C 5.039062 41.308594 5.050781 41.308594 5.257812 41.035156 C 5.382812 40.871094 5.484375 40.679688 5.484375 40.609375 Z M 6.15625 39.996094 C 6.109375 39.875 6.078125 39.910156 6.070312 40.089844 C 6.066406 40.25 6.097656 40.34375 6.144531 40.289062 C 6.195312 40.242188 6.199219 40.105469 6.15625 39.996094 Z M 4.832031 36.625 C 4.792969 36.488281 4.820312 36.207031 4.894531 35.996094 C 5.066406 35.523438 4.894531 35.144531 4.652344 35.457031 C 4.550781 35.589844 4.523438 35.960938 4.578125 36.472656 C 4.636719 36.988281 4.710938 37.207031 4.785156 37.078125 C 4.851562 36.964844 4.875 36.761719 4.832031 36.625 Z M 6.089844 35.84375 C 5.953125 35.703125 5.878906 35.703125 5.742188 35.84375 C 5.609375 35.988281 5.648438 36.027344 5.917969 36.027344 C 6.183594 36.027344 6.222656 35.988281 6.089844 35.84375 Z M 3.265625 35.722656 C 3.148438 35.519531 3.3125 34.953125 3.488281 34.953125 C 3.660156 34.953125 3.660156 35.675781 3.488281 35.792969 C 3.414062 35.839844 3.3125 35.808594 3.265625 35.722656 Z M 4.691406 34.964844 C 4.734375 34.882812 4.707031 34.777344 4.628906 34.722656 C 4.546875 34.671875 4.480469 34.734375 4.480469 34.867188 C 4.480469 35.136719 4.570312 35.175781 4.691406 34.964844 Z M 3.765625 33.945312 C 3.765625 33.8125 3.699219 33.746094 3.617188 33.800781 C 3.539062 33.855469 3.511719 33.960938 3.554688 34.042969 C 3.679688 34.253906 3.765625 34.214844 3.765625 33.945312 Z M 1.410156 31.128906 C 1.351562 31.023438 1.339844 30.894531 1.386719 30.84375 C 1.515625 30.707031 1.652344 30.90625 1.585938 31.132812 C 1.535156 31.289062 1.5 31.289062 1.410156 31.132812 Z M 2.957031 30.878906 C 2.910156 30.75 2.855469 30.648438 2.832031 30.648438 C 2.8125 30.648438 2.753906 30.75 2.710938 30.878906 C 2.660156 31.019531 2.707031 31.109375 2.832031 31.109375 C 2.957031 31.109375 3.007812 31.019531 2.957031 30.878906 Z M 60.691406 30.726562 C 60.691406 30.597656 60.757812 30.496094 60.835938 30.496094 C 60.914062 30.496094 60.980469 30.597656 60.980469 30.726562 C 60.980469 30.851562 60.914062 30.957031 60.835938 30.957031 C 60.757812 30.957031 60.691406 30.851562 60.691406 30.726562 Z M 3.261719 30.035156 C 3.316406 29.941406 3.230469 29.929688 3.027344 30.011719 C 2.847656 30.082031 2.679688 30.226562 2.644531 30.332031 C 2.597656 30.480469 2.652344 30.484375 2.878906 30.355469 C 3.042969 30.261719 3.214844 30.117188 3.261719 30.035156 Z M 60.691406 29.574219 C 60.691406 29.488281 60.664062 29.417969 60.628906 29.417969 C 60.59375 29.417969 60.527344 29.488281 60.476562 29.574219 C 60.429688 29.65625 60.457031 29.726562 60.539062 29.726562 C 60.625 29.726562 60.691406 29.65625 60.691406 29.574219 Z M 2.289062 29.167969 C 2.171875 29.042969 2.300781 28.804688 2.484375 28.804688 C 2.558594 28.804688 2.617188 28.90625 2.617188 29.035156 C 2.617188 29.273438 2.449219 29.339844 2.289062 29.167969 Z M 2.421875 27.34375 C 2.46875 27.21875 2.5625 27.152344 2.636719 27.199219 C 2.785156 27.300781 2.664062 27.574219 2.472656 27.574219 C 2.398438 27.574219 2.375 27.46875 2.421875 27.34375 Z M 62.699219 21.597656 C 62.699219 21.441406 63.113281 21.042969 63.179688 21.136719 C 63.203125 21.167969 63.105469 21.316406 62.960938 21.464844 C 62.816406 21.613281 62.699219 21.671875 62.699219 21.597656 Z M 2.527344 20.519531 C 2.464844 20.175781 2.390625 20.070312 2.285156 20.183594 C 2.183594 20.292969 2.191406 20.46875 2.3125 20.75 C 2.40625 20.972656 2.515625 21.125 2.550781 21.085938 C 2.589844 21.046875 2.578125 20.789062 2.527344 20.519531 Z M 3.277344 20.390625 C 3.132812 20.234375 3.011719 20.46875 3.132812 20.675781 C 3.222656 20.832031 3.257812 20.835938 3.304688 20.675781 C 3.335938 20.570312 3.324219 20.441406 3.277344 20.390625 Z M 0.753906 19.734375 C 0.753906 19.648438 0.820312 19.582031 0.898438 19.582031 C 0.976562 19.582031 1.042969 19.648438 1.042969 19.734375 C 1.042969 19.820312 0.976562 19.886719 0.898438 19.886719 C 0.820312 19.886719 0.753906 19.820312 0.753906 19.734375 Z M 63.050781 17.59375 C 63.09375 17.515625 63.070312 17.429688 62.992188 17.402344 C 62.910156 17.371094 62.902344 17.261719 62.976562 17.136719 C 63.074219 16.96875 63.128906 16.988281 63.253906 17.238281 C 63.378906 17.484375 63.363281 17.570312 63.191406 17.640625 C 63.070312 17.691406 63.007812 17.667969 63.050781 17.59375 Z M 3.101562 16.730469 C 3.152344 16.59375 3.128906 16.53125 3.046875 16.585938 C 2.96875 16.636719 2.90625 16.742188 2.90625 16.824219 C 2.90625 17.042969 3.007812 16.996094 3.101562 16.730469 Z M 7.285156 13.289062 C 7.234375 13.199219 7.128906 13.125 7.050781 13.125 C 6.972656 13.125 6.992188 13.222656 7.09375 13.339844 C 7.300781 13.578125 7.429688 13.542969 7.285156 13.289062 Z M 3.578125 12.253906 C 3.625 12.125 3.574219 11.960938 3.46875 11.886719 C 3.359375 11.816406 3.320312 11.707031 3.375 11.644531 C 3.433594 11.582031 3.574219 11.667969 3.691406 11.828125 C 3.957031 12.207031 3.957031 12.300781 3.699219 12.40625 C 3.558594 12.46875 3.519531 12.417969 3.578125 12.257812 Z M 4.339844 10.828125 C 4.339844 10.75 4.402344 10.640625 4.480469 10.585938 C 4.5625 10.535156 4.625 10.601562 4.625 10.734375 C 4.625 10.863281 4.5625 10.972656 4.480469 10.972656 C 4.402344 10.972656 4.339844 10.90625 4.339844 10.828125 Z M 62.628906 10.203125 C 62.675781 10.121094 62.648438 10.050781 62.5625 10.050781 C 62.480469 10.050781 62.414062 10.121094 62.414062 10.203125 C 62.414062 10.289062 62.441406 10.359375 62.476562 10.359375 C 62.511719 10.359375 62.578125 10.289062 62.628906 10.203125 Z M 62.621094 8.675781 C 62.667969 8.597656 62.640625 8.492188 62.558594 8.4375 C 62.476562 8.382812 62.414062 8.449219 62.414062 8.582031 C 62.414062 8.851562 62.496094 8.890625 62.621094 8.675781 Z M 7.648438 7.683594 C 7.535156 7.535156 7.53125 7.351562 7.632812 7.0625 C 7.8125 6.554688 8.066406 6.683594 8.066406 7.28125 C 8.066406 7.804688 7.878906 7.980469 7.648438 7.683594 Z M 45.347656 7.515625 C 45.25 7.386719 45.113281 7.28125 45.050781 7.28125 C 44.980469 7.28125 44.964844 7.386719 45.007812 7.515625 C 45.054688 7.640625 45.191406 7.746094 45.308594 7.746094 C 45.488281 7.746094 45.496094 7.703125 45.347656 7.515625 Z M 63.378906 6.4375 C 63.417969 6.226562 63.472656 6.054688 63.503906 6.054688 C 63.535156 6.054688 63.558594 6.226562 63.558594 6.4375 C 63.558594 6.648438 63.503906 6.824219 63.4375 6.824219 C 63.367188 6.824219 63.34375 6.648438 63.378906 6.4375 Z M 44.421875 6.300781 C 44.671875 6.03125 44.464844 5.832031 43.878906 5.769531 C 43.402344 5.714844 43.367188 5.949219 43.804688 6.273438 C 44.191406 6.566406 44.175781 6.566406 44.421875 6.300781 Z M 7.40625 6.117188 C 7.453125 5.984375 7.492188 5.8125 7.492188 5.734375 C 7.492188 5.65625 7.636719 5.59375 7.816406 5.59375 C 7.996094 5.597656 8.070312 5.648438 7.984375 5.710938 C 7.898438 5.773438 7.789062 5.945312 7.738281 6.09375 C 7.6875 6.242188 7.574219 6.363281 7.480469 6.363281 C 7.394531 6.363281 7.359375 6.25 7.40625 6.117188 Z M 14.519531 5.890625 C 14.519531 5.789062 14.417969 5.792969 14.234375 5.898438 C 14.074219 5.988281 13.945312 6.132812 13.945312 6.21875 C 13.945312 6.316406 14.046875 6.3125 14.234375 6.207031 C 14.390625 6.117188 14.519531 5.972656 14.519531 5.890625 Z M 10.707031 5.925781 C 10.746094 5.855469 10.6875 5.796875 10.578125 5.796875 C 10.464844 5.796875 10.40625 5.855469 10.449219 5.925781 C 10.488281 5.996094 10.546875 6.054688 10.578125 6.054688 C 10.605469 6.054688 10.664062 5.996094 10.707031 5.925781 Z M 12.367188 5.746094 C 12.367188 5.660156 12.339844 5.59375 12.304688 5.59375 C 12.269531 5.59375 12.203125 5.660156 12.152344 5.746094 C 12.105469 5.832031 12.132812 5.898438 12.21875 5.898438 C 12.300781 5.898438 12.367188 5.832031 12.367188 5.746094 Z M 37.390625 5.59375 C 37.4375 5.507812 37.414062 5.4375 37.335938 5.4375 C 37.257812 5.4375 37.152344 5.507812 37.105469 5.59375 C 37.054688 5.675781 37.078125 5.746094 37.15625 5.746094 C 37.238281 5.746094 37.339844 5.675781 37.390625 5.59375 Z M 46.066406 5.199219 C 46.066406 5.078125 46 4.976562 45.921875 4.976562 C 45.84375 4.976562 45.777344 4.875 45.777344 4.746094 C 45.777344 4.46875 46.011719 4.441406 46.113281 4.707031 C 46.167969 4.847656 46.1875 4.847656 46.199219 4.71875 C 46.214844 4.453125 45.921875 4.300781 45.75 4.484375 C 45.574219 4.671875 45.746094 5.632812 45.933594 5.507812 C 46.007812 5.460938 46.066406 5.320312 46.066406 5.199219 Z M 9.929688 4.777344 C 9.929688 4.617188 9.867188 4.542969 9.777344 4.597656 C 9.695312 4.65625 9.660156 4.796875 9.703125 4.917969 C 9.742188 5.035156 9.710938 5.128906 9.632812 5.128906 C 9.550781 5.128906 9.527344 5.207031 9.582031 5.300781 C 9.703125 5.515625 9.925781 5.179688 9.929688 4.777344 Z M 46.925781 4.972656 C 46.925781 4.703125 46.882812 4.683594 46.636719 4.824219 C 46.324219 5.003906 46.375 5.285156 46.71875 5.285156 C 46.832031 5.285156 46.925781 5.144531 46.925781 4.972656 Z M 10.417969 4.953125 C 10.347656 4.832031 10.390625 4.804688 10.550781 4.871094 C 10.683594 4.921875 10.792969 4.910156 10.792969 4.835938 C 10.792969 4.691406 10.199219 4.488281 10.097656 4.59375 C 10.0625 4.632812 10.113281 4.769531 10.214844 4.894531 C 10.429688 5.171875 10.566406 5.210938 10.417969 4.953125 Z M 27.339844 4.570312 C 27.460938 4.234375 27.300781 4.078125 27.132812 4.367188 C 26.960938 4.65625 26.960938 4.824219 27.121094 4.824219 C 27.195312 4.824219 27.292969 4.710938 27.339844 4.570312 Z M 37.078125 3.863281 C 36.929688 3.589844 36.789062 3.78125 36.859375 4.167969 C 36.925781 4.539062 36.945312 4.550781 37.035156 4.28125 C 37.09375 4.113281 37.113281 3.925781 37.078125 3.863281 Z M 12.472656 4.269531 C 12.425781 4.21875 12.300781 4.214844 12.199219 4.257812 C 12.085938 4.304688 12.117188 4.34375 12.285156 4.351562 C 12.4375 4.355469 12.519531 4.320312 12.472656 4.269531 Z M 10.765625 3.972656 C 10.71875 3.925781 10.640625 4.011719 10.585938 4.164062 C 10.507812 4.382812 10.523438 4.402344 10.664062 4.25 C 10.765625 4.144531 10.808594 4.019531 10.765625 3.972656 Z M 51.46875 4.027344 C 51.421875 3.902344 51.390625 3.941406 51.382812 4.117188 C 51.375 4.28125 51.410156 4.371094 51.457031 4.320312 C 51.503906 4.269531 51.511719 4.136719 51.46875 4.027344 Z M 59.761719 4.210938 C 59.65625 4.027344 59.789062 3.75 59.984375 3.75 C 60.15625 3.75 60.160156 4.164062 59.984375 4.28125 C 59.910156 4.328125 59.808594 4.296875 59.761719 4.210938 Z M 48.769531 3.921875 C 48.664062 3.886719 48.519531 3.78125 48.453125 3.6875 C 48.382812 3.585938 48.367188 3.628906 48.417969 3.800781 C 48.464844 3.953125 48.503906 4.152344 48.503906 4.238281 C 48.503906 4.332031 48.601562 4.3125 48.734375 4.195312 C 48.917969 4.03125 48.925781 3.976562 48.769531 3.921875 Z M 39.769531 4.011719 C 39.585938 3.8125 39.402344 3.964844 39.535156 4.203125 C 39.589844 4.292969 39.699219 4.324219 39.777344 4.269531 C 39.875 4.207031 39.875 4.121094 39.769531 4.011719 Z M 17.183594 3.785156 C 17.085938 3.679688 16.8125 3.898438 16.8125 4.082031 C 16.8125 4.183594 16.894531 4.171875 17.03125 4.050781 C 17.152344 3.945312 17.222656 3.824219 17.183594 3.785156 Z M 30.722656 3.902344 C 30.722656 3.816406 30.695312 3.746094 30.660156 3.746094 C 30.625 3.746094 30.554688 3.816406 30.507812 3.902344 C 30.457031 3.984375 30.488281 4.054688 30.570312 4.054688 C 30.652344 4.054688 30.722656 3.984375 30.722656 3.902344 Z M 59.261719 3.820312 C 59.359375 3.691406 59.472656 3.617188 59.507812 3.65625 C 59.605469 3.765625 59.40625 4.054688 59.230469 4.054688 C 59.136719 4.054688 59.148438 3.96875 59.261719 3.820312 Z M 34.488281 3.757812 C 34.542969 3.542969 34.492188 3.46875 34.308594 3.484375 C 34.101562 3.5 34.085938 3.554688 34.214844 3.78125 C 34.414062 4.117188 34.402344 4.117188 34.488281 3.757812 Z M 21.878906 3.683594 C 21.980469 3.40625 21.632812 3.253906 21.417969 3.484375 C 21.179688 3.738281 21.222656 3.902344 21.53125 3.902344 C 21.679688 3.902344 21.835938 3.804688 21.878906 3.683594 Z M 37.925781 3.519531 C 37.859375 3.140625 37.738281 3.042969 37.566406 3.226562 C 37.472656 3.328125 37.761719 3.902344 37.90625 3.902344 C 37.957031 3.902344 37.964844 3.730469 37.925781 3.519531 Z M 45.890625 3.625 C 45.921875 3.523438 45.84375 3.441406 45.71875 3.441406 C 45.59375 3.441406 45.492188 3.550781 45.492188 3.683594 C 45.492188 3.957031 45.800781 3.90625 45.890625 3.625 Z M 31.152344 3.6875 C 31.152344 3.652344 31.054688 3.585938 30.929688 3.535156 C 30.800781 3.484375 30.746094 3.507812 30.796875 3.597656 C 30.878906 3.742188 31.152344 3.8125 31.152344 3.6875 Z M 54.703125 3.644531 C 54.503906 3.558594 54.457031 3.132812 54.652344 3.132812 C 54.722656 3.132812 54.8125 3.269531 54.855469 3.441406 C 54.894531 3.609375 54.917969 3.742188 54.90625 3.734375 C 54.894531 3.726562 54.804688 3.6875 54.703125 3.644531 Z M 59.976562 3.285156 C 59.976562 3.199219 60.042969 3.132812 60.125 3.132812 C 60.210938 3.132812 60.238281 3.199219 60.1875 3.285156 C 60.140625 3.371094 60.074219 3.441406 60.039062 3.441406 C 60.003906 3.441406 59.976562 3.371094 59.976562 3.285156 Z M 11.582031 3.132812 C 11.4375 2.964844 11.386719 2.824219 11.46875 2.824219 C 11.648438 2.824219 12.007812 3.265625 11.910156 3.367188 C 11.871094 3.40625 11.722656 3.300781 11.582031 3.132812 Z M 36.84375 2.644531 C 36.796875 2.519531 36.761719 2.558594 36.757812 2.734375 C 36.75 2.898438 36.785156 2.988281 36.832031 2.9375 C 36.878906 2.886719 36.882812 2.753906 36.84375 2.644531 Z M 46.425781 2.671875 C 46.375 2.585938 46.402344 2.515625 46.488281 2.515625 C 46.570312 2.515625 46.640625 2.585938 46.640625 2.671875 C 46.640625 2.757812 46.609375 2.824219 46.574219 2.824219 C 46.539062 2.824219 46.472656 2.757812 46.425781 2.671875 Z M 11.6875 2.714844 C 11.347656 2.648438 11.265625 2.449219 11.511719 2.285156 C 11.730469 2.140625 12.226562 2.359375 12.226562 2.605469 C 12.226562 2.726562 12.175781 2.816406 12.117188 2.804688 C 12.058594 2.792969 11.867188 2.753906 11.6875 2.71875 Z M 39.207031 2.539062 C 38.929688 2.347656 39.136719 1.285156 39.449219 1.300781 C 39.597656 1.308594 39.621094 1.339844 39.503906 1.390625 C 39.40625 1.433594 39.324219 1.535156 39.324219 1.617188 C 39.324219 1.699219 39.390625 1.726562 39.46875 1.671875 C 39.550781 1.621094 39.613281 1.71875 39.613281 1.894531 C 39.613281 2.070312 39.542969 2.210938 39.453125 2.210938 C 39.367188 2.210938 39.332031 2.316406 39.378906 2.441406 C 39.472656 2.707031 39.464844 2.710938 39.207031 2.539062 Z M 13.8125 2.429688 C 13.820312 2.25 13.855469 2.210938 13.898438 2.335938 C 13.941406 2.445312 13.9375 2.578125 13.890625 2.628906 C 13.84375 2.679688 13.808594 2.589844 13.8125 2.429688 Z M 28.210938 2.515625 C 28.15625 2.421875 28.152344 2.300781 28.199219 2.25 C 28.246094 2.199219 28.289062 2.257812 28.296875 2.375 C 28.300781 2.496094 28.394531 2.316406 28.496094 1.980469 C 28.683594 1.367188 28.683594 1.367188 28.699219 1.84375 C 28.714844 2.367188 28.386719 2.816406 28.210938 2.515625 Z M 32.726562 2.25 C 32.726562 2.101562 32.449219 1.636719 32.445312 1.773438 C 32.445312 1.832031 32.40625 1.988281 32.355469 2.121094 C 32.300781 2.28125 32.347656 2.363281 32.5 2.363281 C 32.625 2.363281 32.730469 2.3125 32.726562 2.25 Z M 31.582031 2.082031 C 31.582031 2.011719 31.488281 1.953125 31.367188 1.953125 C 31.25 1.953125 31.152344 2.011719 31.152344 2.082031 C 31.152344 2.152344 31.25 2.210938 31.367188 2.210938 C 31.488281 2.210938 31.582031 2.152344 31.582031 2.082031 Z M 37.332031 1.660156 C 37.335938 1.480469 37.371094 1.445312 37.417969 1.566406 C 37.457031 1.675781 37.453125 1.808594 37.40625 1.859375 C 37.359375 1.914062 37.324219 1.820312 37.332031 1.660156 Z M 17.738281 1.585938 C 17.6875 1.496094 17.675781 1.386719 17.714844 1.347656 C 17.75 1.308594 17.820312 1.382812 17.867188 1.511719 C 17.964844 1.78125 17.882812 1.832031 17.738281 1.585938 Z M 31.679688 1.1875 C 31.636719 1.140625 31.527344 1.152344 31.433594 1.214844 C 31.308594 1.296875 31.316406 1.359375 31.460938 1.457031 C 31.652344 1.582031 31.835938 1.355469 31.679688 1.1875 Z M 12.367188 1.160156 C 12.367188 0.976562 12.640625 0.757812 12.742188 0.867188 C 12.777344 0.90625 12.707031 1.023438 12.585938 1.132812 C 12.453125 1.253906 12.367188 1.265625 12.367188 1.164062 Z M 33.015625 0.980469 C 33.015625 0.894531 33.082031 0.828125 33.160156 0.828125 C 33.238281 0.828125 33.304688 0.894531 33.304688 0.980469 C 33.304688 1.066406 33.238281 1.132812 33.160156 1.132812 C 33.082031 1.132812 33.015625 1.066406 33.015625 0.980469 Z M 19.753906 0.828125 C 19.800781 0.742188 19.871094 0.671875 19.90625 0.671875 C 19.941406 0.671875 19.96875 0.742188 19.96875 0.828125 C 19.96875 0.910156 19.898438 0.980469 19.816406 0.980469 C 19.734375 0.980469 19.703125 0.910156 19.753906 0.828125 Z M 19.753906 0.828125 "/></g></g><mask id="2ed2639225"><g filter="url(#a034d0622c)"><rect x="0" width="75" y="0" height="74.999997" style="fill:#000000;fill-opacity:0.64;stroke:none;"/></g></mask></g><g clip-rule="nonzero" clip-path="url(#f1230a6df0)"><path style=" stroke:none;fill-rule:nonzero;fill:#bb1111;fill-opacity:1;" d="M 16.34375 18.167969 L 46.546875 10.367188 C 47.105469 9.90625 47.4375 9.257812 47.472656 8.386719 C 47.519531 7.113281 47.175781 5.902344 46.109375 5.152344 C 45.636719 4.820312 45.035156 4.726562 44.492188 4.523438 C 34.75 7.039062 25.003906 9.558594 15.261719 12.074219 C 14.472656 12.667969 13.863281 13.417969 13.878906 14.558594 C 13.90625 16.277344 14.710938 17.84375 16.34375 18.167969 "/></g><path style=" stroke:none;fill-rule:nonzero;fill:#bb1111;fill-opacity:1;" d="M 55.417969 48.003906 C 54.496094 44.640625 52.382812 42.246094 49.136719 40.886719 C 47.105469 40.035156 45.027344 39.210938 43.019531 38.414062 C 42.078125 38.039062 41.140625 37.667969 40.199219 37.292969 C 39.972656 37.199219 39.804688 37.007812 39.742188 36.769531 C 39.679688 36.53125 39.734375 36.289062 39.890625 36.097656 C 40.535156 35.308594 41.179688 34.519531 41.824219 33.734375 C 43.195312 32.066406 44.609375 30.34375 45.96875 28.621094 C 48.152344 25.859375 48.839844 22.738281 48.019531 19.355469 C 47.632812 17.777344 47.214844 16.179688 46.808594 14.632812 C 46.625 13.933594 46.441406 13.226562 46.261719 12.527344 L 46.15625 12.125 L 44.070312 12.664062 L 44.117188 12.847656 C 44.300781 13.582031 44.496094 14.308594 44.691406 15.039062 C 45.195312 16.933594 45.71875 18.898438 46.078125 20.847656 C 46.492188 23.085938 45.871094 25.308594 44.285156 27.277344 C 42.226562 29.828125 40.1875 32.328125 38.214844 34.71875 L 37.570312 32.210938 C 38.226562 31.40625 38.882812 30.597656 39.539062 29.792969 C 40.507812 28.605469 41.472656 27.417969 42.441406 26.230469 C 42.722656 25.890625 43.050781 25.363281 42.664062 24.753906 C 42.285156 24.164062 41.703125 24.246094 41.230469 24.351562 C 39.585938 24.785156 37.9375 25.210938 36.292969 25.632812 L 34.753906 26.03125 L 34.753906 26.027344 L 32.804688 26.53125 C 31.171875 26.957031 29.539062 27.378906 27.902344 27.792969 C 27.375 27.929688 26.839844 28.15625 26.804688 28.867188 C 26.773438 29.5625 27.285156 29.855469 27.734375 30.035156 C 29.402344 30.691406 31.066406 31.359375 32.730469 32.023438 L 35.007812 32.933594 L 35.664062 35.476562 C 35.628906 35.460938 35.59375 35.449219 35.554688 35.433594 C 35.394531 35.371094 35.214844 35.300781 35.007812 35.214844 C 33.875 34.757812 32.734375 34.304688 31.597656 33.851562 C 29.957031 33.203125 28.316406 32.550781 26.683594 31.882812 C 24.035156 30.800781 22.304688 28.839844 21.539062 26.054688 C 21.121094 24.523438 20.722656 22.957031 20.335938 21.445312 C 20.164062 20.757812 19.988281 20.074219 19.8125 19.394531 L 19.699219 18.957031 L 17.625 19.492188 L 17.730469 19.898438 C 17.914062 20.601562 18.089844 21.308594 18.269531 22.015625 C 18.664062 23.558594 19.070312 25.15625 19.503906 26.722656 C 20.441406 30.101562 22.550781 32.5 25.777344 33.839844 C 27.808594 34.683594 29.882812 35.511719 31.894531 36.308594 C 32.835938 36.683594 33.773438 37.058594 34.714844 37.433594 C 34.945312 37.527344 35.113281 37.714844 35.171875 37.949219 C 35.234375 38.183594 35.175781 38.429688 35.015625 38.628906 C 34.378906 39.410156 33.738281 40.191406 33.09375 40.972656 C 31.722656 42.644531 30.300781 44.371094 28.9375 46.097656 C 26.757812 48.847656 26.070312 51.96875 26.894531 55.363281 C 27.277344 56.941406 27.699219 58.539062 28.101562 60.085938 C 28.285156 60.789062 28.472656 61.488281 28.652344 62.195312 L 28.722656 62.46875 L 30.800781 61.933594 L 30.734375 61.6875 C 30.558594 60.992188 30.375 60.300781 30.191406 59.609375 C 29.789062 58.070312 29.371094 56.484375 28.996094 54.917969 C 28.332031 52.15625 28.875 49.652344 30.613281 47.46875 C 32.757812 44.773438 34.9375 42.128906 36.804688 39.886719 L 37.457031 42.414062 C 37.011719 42.957031 36.566406 43.492188 36.121094 44.035156 C 34.785156 45.652344 33.40625 47.324219 32.128906 49.035156 C 30.8125 50.800781 30.40625 52.9375 30.957031 55.214844 C 31.289062 56.609375 31.660156 58.015625 32.015625 59.375 C 32.175781 59.980469 32.335938 60.585938 32.492188 61.195312 L 32.5625 61.476562 L 53.417969 56.089844 L 53.351562 55.835938 C 53.195312 55.230469 53.039062 54.625 52.882812 54.019531 C 52.546875 52.691406 52.195312 51.316406 51.828125 49.96875 C 51.15625 47.488281 49.617188 45.722656 47.261719 44.722656 C 45.414062 43.9375 43.519531 43.1875 41.6875 42.457031 C 41.140625 42.242188 40.59375 42.027344 40.046875 41.808594 L 39.402344 39.304688 C 39.542969 39.359375 39.703125 39.425781 39.882812 39.496094 C 40.902344 39.90625 41.925781 40.3125 42.945312 40.722656 C 44.707031 41.421875 46.527344 42.144531 48.304688 42.882812 C 50.898438 43.957031 52.597656 45.882812 53.351562 48.597656 C 53.820312 50.28125 54.242188 51.933594 54.6875 53.6875 C 54.835938 54.273438 54.980469 54.859375 55.132812 55.449219 L 55.179688 55.636719 L 57.253906 55.097656 L 57.1875 54.828125 C 57.003906 54.125 56.824219 53.421875 56.644531 52.71875 C 56.25 51.167969 55.847656 49.570312 55.417969 48.003906 "/><g clip-rule="nonzero" clip-path="url(#01df446b7f)"><path style=" stroke:none;fill-rule:nonzero;fill:#bb1111;fill-opacity:1;" d="M 58.308594 56.542969 L 28.476562 64.246094 C 27.816406 64.710938 27.414062 65.394531 27.375 66.359375 C 27.328125 67.628906 27.664062 68.839844 28.738281 69.585938 C 29.210938 69.914062 29.808594 70.011719 30.351562 70.214844 C 40.09375 67.699219 49.839844 65.179688 59.582031 62.664062 C 60.378906 62.078125 60.980469 61.324219 60.964844 60.183594 C 60.941406 58.363281 60.039062 56.761719 58.308594 56.542969 "/></g></g></svg>